<svg width="48" height="44" viewBox="0 0 48 44" fill="none" xmlns="http://www.w3.org/2000/svg">
<path d="M5.17383 38.3369C5.17383 39.3289 5.97969 40.1355 6.97168 40.1357H40.3271C41.3193 40.1357 42.126 39.3291 42.126 38.3369L42.124 34.8066H31.1592L30.1689 36.833L30.168 36.832C29.8707 37.4411 29.2433 37.8338 28.5664 37.834H18.7314C18.0544 37.834 17.4262 37.4413 17.1289 36.832V36.833L16.1387 34.8066H5.17383V38.3369ZM17.9209 36.4434L17.9844 36.5537C18.1512 36.7986 18.432 36.9512 18.7314 36.9512L28.5674 36.9521L28.6943 36.9434C28.987 36.9011 29.248 36.7147 29.3789 36.4453L30.1787 34.8057H17.1201L17.9209 36.4434ZM28.9053 11.8984C28.8645 12.0985 28.6876 12.2508 28.4736 12.251H8.17578C7.67775 12.2511 7.27246 12.6576 7.27246 13.1543L7.27148 33.9238H9.09082V14.5107C9.09093 14.2691 9.28681 14.0705 9.53125 14.0703H26.2715C26.5133 14.0703 26.7118 14.2662 26.7119 14.5107C26.7119 14.7526 26.5161 14.9512 26.2715 14.9512H9.97363L9.97559 33.9238H37.3271V16.3418C37.3271 16.1 37.5229 15.9014 37.7676 15.9014C38.0093 15.9015 38.208 16.0972 38.208 16.3418V33.9258H40.0273V13.1533C40.0276 12.9117 40.2242 12.7129 40.4688 12.7129C40.7103 12.7131 40.9089 12.909 40.9092 13.1533V33.9238H42.5664C42.8101 33.9241 43.0076 34.1225 43.0078 34.3662V38.3369C43.0078 39.8155 41.8057 41.0184 40.3271 41.0186H6.97168C5.49303 41.0185 4.29004 39.8156 4.29004 38.3369L4.29199 34.3652L4.30078 34.2764C4.34164 34.0764 4.5185 33.924 4.73242 33.9238L6.38965 33.9248V13.1543C6.38965 12.1712 7.18985 11.3691 8.1748 11.3691H28.4717C28.7161 11.3692 28.9115 11.566 28.9141 11.8086V11.8105L28.9053 11.8984Z" fill="#2F91DE" stroke="#2F91DE" stroke-width="0.3"/>
<path d="M39.0381 3.12598C39.7279 3.15475 40.38 3.41723 40.9014 3.88281L41.0137 3.98828C42.1018 5.06325 42.2005 6.79779 41.2412 7.98926L41.1416 8.10645L39.5918 9.8418L40.5049 10.6553V10.6562L40.6016 10.7607C40.6872 10.8742 40.7381 11.011 40.7461 11.1572L40.7402 11.3008C40.7268 11.3946 40.6947 11.4846 40.6465 11.5664L40.5625 11.6826L39.417 12.9658L35.8457 16.9668C35.7598 17.0628 35.64 17.1141 35.5176 17.1143C35.4142 17.1143 35.3077 17.0783 35.2227 17.001V17C35.0416 16.8371 35.0266 16.5586 35.1895 16.3779L38.7598 12.3779L39.8047 11.2061L39.0059 10.498L30.8301 19.6592L26.4697 24.5479C26.3659 24.6644 26.2264 24.7446 26.0742 24.7764H26.0732L22.3604 25.5381L22.3594 25.5371C22.3088 25.5479 22.2581 25.5527 22.2119 25.5527C22.1107 25.5527 22.0194 25.5213 21.9395 25.4863C21.1984 25.4819 20.8029 25.0844 20.5137 24.7969V24.7959C20.3776 24.6615 20.271 24.5569 20.1484 24.4824C20.0315 24.4115 19.896 24.3662 19.7041 24.3662C19.5104 24.3663 19.3744 24.4123 19.2568 24.4834C19.1951 24.5207 19.1373 24.5656 19.0781 24.6182L18.8896 24.7988C18.5985 25.0883 18.2007 25.4872 17.4521 25.4873C16.8941 25.4873 16.5307 25.2634 16.2617 25.0293L16.0205 24.7998C15.8842 24.6635 15.7774 24.5582 15.6543 24.4834C15.5371 24.4122 15.4008 24.3662 15.2061 24.3662C15.0132 24.3662 14.8775 24.4113 14.7607 24.4824C14.6382 24.5571 14.5319 24.6624 14.3965 24.7979V24.7988C14.1057 25.0879 13.7094 25.4873 12.9639 25.4873C12.892 25.4873 12.8225 25.4827 12.7559 25.4746L12.5645 25.4385C12.3285 25.3767 12.1905 25.1339 12.251 24.8994L12.2822 24.8154C12.3732 24.6316 12.5848 24.532 12.79 24.585H12.7891C12.8357 24.5966 12.8936 24.6045 12.9639 24.6045C13.1568 24.6045 13.2924 24.5593 13.4092 24.4883C13.5317 24.4137 13.638 24.3083 13.7734 24.1729L14.0156 23.9424C14.2846 23.7082 14.6472 23.4835 15.2061 23.4834C15.9548 23.4834 16.3527 23.8847 16.6436 24.1738L16.832 24.3535C16.891 24.4058 16.9484 24.451 17.0098 24.4883C17.1267 24.5592 17.2622 24.6045 17.4541 24.6045C17.6478 24.6044 17.7838 24.5585 17.9014 24.4873C18.0247 24.4126 18.1324 24.3082 18.2686 24.1729L18.5107 23.9424C18.7805 23.7081 19.1446 23.4834 19.7061 23.4834C20.4499 23.4834 20.8479 23.8811 21.1377 24.1709H21.1367C21.2762 24.3092 21.3893 24.4147 21.5146 24.4883L21.8262 20.9814C21.8392 20.826 21.9048 20.6761 22.0088 20.5615L36.6787 4.12207L36.8867 3.91016C37.3944 3.44284 38.0427 3.16814 38.7402 3.12793L39.0381 3.12598ZM22.3857 24.6348L25.2764 24.0352L22.6455 21.6895L22.3857 24.6348ZM22.9766 20.7988L26.124 23.6074L30.1729 19.0703L37.1621 11.2383L34.0166 8.43066L22.9766 20.7988ZM34.6045 7.77148L37.75 10.5801L39.4424 8.68359L36.2959 5.87598L34.6045 7.77148ZM38.791 4.00781L38.792 4.00879C38.2996 4.03631 37.8437 4.23004 37.4863 4.55957L37.3389 4.70898L36.8857 5.21973L40.0312 8.02832L40.4863 7.51953L40.6211 7.35156C41.2467 6.48615 41.1293 5.26812 40.3164 4.54199V4.54102C39.9256 4.19287 39.4321 4.00488 38.915 4.00488C38.8751 4.00488 38.8347 4.00613 38.791 4.00781Z" fill="#2F91DE" stroke="#2F91DE" stroke-width="0.3"/>
<path d="M34.5664 29.0898L34.6543 29.0986C34.8545 29.1393 35.0067 29.3162 35.0068 29.5303C35.0068 29.772 34.8098 29.9702 34.5654 29.9688V29.9697H12.7344C12.4927 29.9697 12.2932 29.7738 12.293 29.5293C12.293 29.2875 12.4897 29.0879 12.7344 29.0879L34.5664 29.0898Z" fill="#2F91DE" stroke="#2F91DE" stroke-width="0.3"/>
<path d="M21.4346 26.6152C21.6764 26.6152 21.875 26.812 21.875 27.0566C21.8748 27.2983 21.6791 27.4971 21.4346 27.4971H12.7344C12.4927 27.4971 12.2932 27.3011 12.293 27.0566C12.293 26.8148 12.4897 26.6152 12.7344 26.6152H21.4346Z" fill="#2F91DE" stroke="#2F91DE" stroke-width="0.3"/>
<path d="M34.5664 26.6152C34.8075 26.6154 35.0068 26.8111 35.0049 27.0566L34.9961 27.1445C34.9553 27.3446 34.7785 27.4971 34.5645 27.4971H25.8643C25.6226 27.4971 25.4231 27.3011 25.4229 27.0566C25.4229 26.8148 25.6196 26.6152 25.8643 26.6152H34.5664Z" fill="#2F91DE" stroke="#2F91DE" stroke-width="0.3"/>
<path d="M34.1396 31.5625L34.2285 31.5713C34.4283 31.6122 34.5799 31.7891 34.5801 32.0029C34.5801 32.2147 34.4301 32.3934 34.2285 32.4346L34.1396 32.4434L12.7344 32.4424C12.4927 32.4424 12.2932 32.2464 12.293 32.002C12.293 31.7601 12.4897 31.5605 12.7344 31.5605L34.1396 31.5625Z" fill="#2F91DE" stroke="#2F91DE" stroke-width="0.3"/>
<path d="M15.5781 16.6875C16.7963 16.6877 17.7871 17.6793 17.7871 18.8975C17.787 19.5497 17.5002 20.1334 17.0508 20.5371C17.8233 20.8702 18.4735 21.4585 18.873 22.2402H18.8721C18.9704 22.4306 18.9161 22.657 18.7568 22.7852L18.6816 22.833C18.4641 22.9455 18.2002 22.8576 18.0889 22.6426H18.0879C17.6347 21.7557 16.763 21.1826 15.7803 21.1133L15.583 21.1064H15.5762C14.5139 21.1081 13.5546 21.6967 13.0713 22.6426L13.0703 22.6416C12.9926 22.7961 12.8371 22.8818 12.6787 22.8818C12.6114 22.8818 12.543 22.8662 12.4785 22.833V22.834C12.2613 22.7241 12.1752 22.4569 12.2871 22.2402H12.2861C12.6855 21.4589 13.335 20.8703 14.1045 20.5371C13.6541 20.1333 13.3682 19.5495 13.3682 18.8975C13.3682 17.6791 14.3598 16.6875 15.5781 16.6875ZM15.5811 17.5693C14.8494 17.5694 14.2529 18.1657 14.2529 18.8975C14.2531 19.6275 14.8463 20.2221 15.5781 20.2236H15.584C16.3141 20.2221 16.9071 19.6276 16.9072 18.8975C16.9072 18.1654 16.3126 17.5693 15.5811 17.5693Z" fill="#2F91DE" stroke="#2F91DE" stroke-width="0.3"/>
</svg>
