<svg width="39" height="43" viewBox="0 0 39 43" fill="none" xmlns="http://www.w3.org/2000/svg">
<path d="M9.16309 28.1914C10.8549 27.1664 12.9065 27.099 14.6523 28.0059L14.6885 28.0244L17.7764 30.1572L17.8691 30.2217L17.9814 30.2393L21.7969 30.8506H21.7979C22.48 30.9592 23.0153 31.4609 23.2012 32.1299L23.3193 32.5547L23.7559 32.4902L26.5303 32.0811L26.6309 32.0664L26.7168 32.0137L28.7188 30.7979L28.7891 30.7549L28.8418 30.6924C29.3183 30.1279 29.9001 29.4583 30.584 28.9902C31.2576 28.5293 31.9773 28.2989 32.7627 28.5195V28.5205L33.6836 28.7822L33.7236 28.793C33.9961 28.8818 34.2208 29.0797 34.3447 29.3467L34.3936 29.4697V29.4717C34.4959 29.7827 34.457 30.1136 34.2969 30.3799L34.2207 30.4902L34.2197 30.4912L32.4336 32.7686C31.7686 33.6154 31.0141 34.3823 30.1885 35.0518L29.8311 35.332C28.9557 35.9942 27.9414 36.5537 26.7246 37.0293L26.1904 37.2285L21.1367 39.0195C20.9271 39.0912 20.7267 39.1269 20.5264 39.127C20.4031 39.127 20.2815 39.1153 20.1611 39.0898L20.041 39.0596L20.0371 39.0586L12.667 36.9834L12.458 36.9238L12.2725 37.0371L10.8555 37.8965L10.4453 38.1455L10.6768 38.5654L11.2207 39.5527V39.5537C11.2638 39.6316 11.2397 39.7335 11.1572 39.7842L6.73047 42.4717L6.72461 42.4746C6.69731 42.4917 6.6684 42.4999 6.64062 42.5C6.6167 42.5 6.5982 42.4962 6.58887 42.4941C6.56459 42.4876 6.54454 42.4784 6.52832 42.4658L6.48828 42.4189L6.4873 42.416L0.521484 31.5605V31.5596L0.500977 31.4971C0.493588 31.433 0.523706 31.366 0.585938 31.3281L0.584961 31.3271L5.00488 28.6455C5.03038 28.6307 5.05592 28.6225 5.08008 28.6191L5.14648 28.623L5.15137 28.624C5.17653 28.6306 5.1972 28.6405 5.21387 28.6533L5.25391 28.7002L5.25586 28.7051L5.77344 29.6387L6.02441 30.0928L6.46973 29.8242L9.16309 28.1914ZM4.59375 29.291L1.31543 31.2793L0.90625 31.5283L1.13672 31.9482L6.45703 41.6221L6.70898 42.0791L7.1543 41.8086L10.4326 39.8203L10.8428 39.5713L10.6113 39.1514L5.29102 29.4775L5.04004 29.0205L4.59375 29.291ZM14.1367 28.1406C12.6852 27.5115 11.0454 27.5699 9.63477 28.3096L9.33594 28.4785L6.5957 30.1377L6.18555 30.3857L6.41602 30.8057L10.0303 37.3828L10.2822 37.8408L10.7285 37.5693L12.3408 36.5879L12.3457 36.585C12.3668 36.5718 12.3878 36.5644 12.4082 36.5615L12.4697 36.5664L12.4766 36.5684L20.126 38.7236V38.7246C20.4159 38.8074 20.7247 38.7961 21.0098 38.6943L21.0088 38.6934L26.0674 36.9014C27.2947 36.466 28.338 35.9468 29.2373 35.3271L29.6143 35.0557L29.6162 35.0537C30.5554 34.3371 31.4127 33.5008 32.1523 32.5518L32.1514 32.5508L33.9385 30.2754L34.3184 29.791L34.0703 29.668L34.0459 29.5674L34.0107 29.4795C33.9554 29.3631 33.8315 29.1791 33.5791 29.1104H33.5801L33.5693 29.1074C33.5678 29.107 33.566 29.1058 33.5645 29.1055H33.5635L32.6602 28.8477H32.6582C31.899 28.6354 31.2016 28.9412 30.6279 29.3672C30.0557 29.7922 29.5143 30.4042 29.0234 30.9883C29.0177 30.9948 28.9976 31.0121 28.9561 31.04L26.7705 32.3643L26.6924 32.3945L23.5693 32.8584L23.2607 32.9043L23.166 33.2021C23.071 33.5014 22.9109 33.7693 22.6982 33.9814L22.6045 34.0693L22.6025 34.0703C22.291 34.3402 21.9102 34.4785 21.5127 34.4785C21.4654 34.4785 21.4143 34.4738 21.3369 34.4668H21.3359L15.666 33.8896C15.5687 33.8774 15.5047 33.7931 15.5137 33.7041C15.5222 33.6272 15.5706 33.5721 15.6348 33.5537L15.7031 33.5479H15.7051L21.3818 34.126V34.125C21.7551 34.1666 22.1168 34.0441 22.3945 33.8076L22.3936 33.8066C22.6743 33.57 22.8443 33.2468 22.9014 32.9004L22.9189 32.75V32.7412C22.9548 32.0602 22.5372 31.3892 21.8643 31.209L21.7256 31.1797L17.7627 30.5479L17.75 30.5469L17.6855 30.5186L14.502 28.3193L14.4746 28.3008L14.4453 28.2861L14.1367 28.1406ZM14.6729 28.0137L14.6738 28.0146L14.6719 28.0137L14.6689 28.0117L14.6729 28.0137Z" fill="#2F91DE" stroke="#2F91DE"/>
<path d="M23.5205 0.5C25.9938 0.5 28.0057 2.50122 28.0059 4.9707C28.0059 7.44119 25.9928 9.44922 23.5205 9.44922C21.0487 9.44904 19.0361 7.43466 19.0361 4.9707C19.0363 2.50776 21.0479 0.500181 23.5205 0.5ZM23.5205 0.842773C21.2383 0.842954 19.3799 2.68365 19.3799 4.9707C19.3799 7.25657 21.2371 9.10529 23.5205 9.10547C25.8047 9.10547 27.6621 7.24938 27.6621 4.9707C27.6621 2.69084 25.8035 0.842773 23.5205 0.842773Z" fill="#2F91DE" stroke="#2F91DE"/>
<path d="M33.3035 11.1304C35.1778 11.1304 36.7027 9.60545 36.7027 7.73121C36.7027 5.85698 35.1777 4.33203 33.3035 4.33203C31.4292 4.33203 29.9043 5.85698 29.9043 7.73121C29.9043 9.60545 31.4292 11.1304 33.3035 11.1304ZM33.3035 5.68221C34.4388 5.68221 35.3591 6.60254 35.3591 7.73784C35.3591 8.87313 34.4388 9.79346 33.3035 9.79346C32.1682 9.79346 31.2479 8.87313 31.2479 7.73784C31.2479 6.60254 32.1749 5.68221 33.3035 5.68221Z" fill="#2F91DE"/>
<path d="M23.5225 11.2539C25.0436 11.254 26.5041 11.7805 27.6738 12.7363L27.9043 12.9336C28.2282 13.2265 28.5214 13.5511 28.7773 13.8945L29.2412 14.5156L29.6162 13.8369C30.3444 12.5193 31.7391 11.6504 33.3037 11.6504C34.3421 11.6505 35.3444 12.0348 36.1191 12.7314C36.8467 13.3856 37.3257 14.2662 37.4766 15.2246L37.502 15.417V15.4189L37.791 17.9648L37.8037 18.0811C37.8304 18.6018 37.6517 19.114 37.3037 19.502C36.9286 19.92 36.385 20.1631 35.8213 20.1631H30.3975L30.4619 20.7197L30.5078 21.125V21.126C30.5946 21.9285 30.3612 22.7398 29.8584 23.3633L29.7539 23.4854L29.752 23.4873C29.1751 24.1332 28.3504 24.5019 27.4854 24.502H19.5645C18.7535 24.5018 17.9783 24.1774 17.4092 23.6045L17.2979 23.4873L17.2959 23.4854L17.1914 23.3633C16.6868 22.7391 16.4495 21.9342 16.541 21.1299L16.5889 20.7197L16.6523 20.1631H11.2285C10.6648 20.1631 10.1213 19.92 9.74609 19.502C9.3741 19.0872 9.1947 18.5252 9.25293 17.958L9.54199 15.4053V15.4043C9.78256 13.2584 11.585 11.6436 13.7412 11.6436C14.7148 11.6437 15.6568 11.9814 16.4092 12.5977L16.5566 12.7246H16.5576C16.9079 13.0393 17.2034 13.4241 17.4346 13.8438L17.8066 14.5195L18.2715 13.9033C19.5051 12.2695 21.4427 11.2539 23.5225 11.2539ZM23.5156 11.5977C21.0972 11.5977 18.8848 13.0137 17.8691 15.2051C17.6198 15.7421 17.4487 16.3069 17.3564 16.8975L17.3223 17.1514L17.3213 17.1553L17.0195 19.916L17.0176 19.9365L16.8789 21.1709L16.8779 21.1729C16.7958 21.9287 17.034 22.6957 17.5479 23.2676C18.0585 23.8358 18.7911 24.165 19.5586 24.165H27.4795C28.2469 24.1649 28.9797 23.8358 29.4902 23.2676L29.9277 22.7803L29.8398 22.7363C30.0512 22.3408 30.1639 21.8984 30.1621 21.4492L30.1455 21.166V21.1641L30.0078 19.9365L30.0049 19.9092L29.7021 17.1484V17.1445L29.667 16.8916C29.5879 16.3892 29.4519 15.8989 29.2568 15.4336L29.1543 15.2031C28.8026 14.4356 28.298 13.757 27.665 13.1895H27.6641C26.5237 12.1596 25.0481 11.5977 23.5156 11.5977ZM13.7412 12.001C11.8222 12.001 10.2045 13.3907 9.90918 15.2725L9.88477 15.4561L9.59668 18L9.5957 18.0039C9.54747 18.467 9.69414 18.9225 10.0088 19.2754C10.2399 19.5345 10.5361 19.7072 10.8623 19.7822L10.8838 19.8457H16.7021L16.751 19.4004L16.999 17.1299V17.127C17.0297 16.8326 17.0851 16.5415 17.1602 16.2539L17.166 16.2324L17.1699 16.21C17.1726 16.194 17.1737 16.1863 17.1748 16.1816C17.1756 16.1781 17.1766 16.1754 17.1777 16.1719L17.1836 16.1543L17.1885 16.1348C17.2546 15.8703 17.3463 15.6126 17.4541 15.3525L17.4688 15.3184L17.4775 15.2822L17.4814 15.2676L17.5498 15.1309L17.5039 14.9502C17.3362 14.2928 17.0036 13.6852 16.5342 13.1963L16.3242 12.9941C15.6151 12.3553 14.6976 12.001 13.7412 12.001ZM33.2969 11.9873C31.5074 11.9873 29.9575 13.2132 29.5332 14.9336L29.4893 15.1123L29.5557 15.2461C29.5572 15.2513 29.5588 15.257 29.5605 15.2627C29.5656 15.279 29.5737 15.2983 29.583 15.3203L29.582 15.3213C29.6366 15.456 29.6871 15.5894 29.7334 15.7227L29.8584 16.125C29.8644 16.1515 29.8694 16.1727 29.8721 16.1826C29.8778 16.2036 29.8764 16.1988 29.875 16.1904L29.8779 16.207L29.8818 16.2246C29.9521 16.5186 30.0082 16.816 30.0459 17.1172V17.1162L30.3008 19.3818L30.3506 19.8262H35.8096C36.2808 19.826 36.7185 19.6304 37.0352 19.2754L37.7783 18.4434H37.4268C37.4414 18.3544 37.4512 18.2643 37.4512 18.1729L37.4424 17.999L37.4414 17.9932L37.1523 15.4512H37.1533C37.059 14.5518 36.6517 13.7294 36.0186 13.1045L35.8887 12.9824L35.8867 12.9805L35.751 12.8643C35.0577 12.2994 34.1949 11.9873 33.2969 11.9873Z" fill="#2F91DE" stroke="#2F91DE"/>
<path d="M13.74 11.1304C15.6143 11.1304 17.1392 9.60545 17.1392 7.73121C17.1392 5.85698 15.6142 4.33203 13.74 4.33203C11.8658 4.33203 10.3408 5.85698 10.3408 7.73121C10.3408 9.60545 11.8658 11.1304 13.74 11.1304ZM13.74 5.68221C14.8753 5.68221 15.7956 6.60254 15.7956 7.73784C15.7956 8.87313 14.8686 9.79346 13.74 9.79346C12.6114 9.79346 11.6844 8.87313 11.6844 7.73784C11.6844 6.60254 12.6047 5.68221 13.74 5.68221Z" fill="#2F91DE"/>
</svg>
