<svg width="39" height="43" viewBox="0 0 39 43" fill="none" xmlns="http://www.w3.org/2000/svg">
<path d="M14.9568 27.6025L14.8276 27.7834L14.6662 28.0094L14.6691 28.0114C14.6691 28.0114 14.6693 28.0116 14.6696 28.0118C14.6697 28.0119 14.6696 28.0118 14.6691 28.0114L14.668 28.0107L14.6672 28.0101L14.6667 28.0098L14.6665 28.0096L14.6663 28.0095L14.6663 28.0094L14.8276 27.7835L14.9568 27.6025ZM14.9568 27.6025C14.9568 27.6025 14.9098 27.5689 14.8829 27.5622L32.9 28.0392C30.9451 27.4884 29.4067 29.2484 28.4596 30.3703L26.4577 31.5862L23.6832 31.996C23.4481 31.1495 22.7629 30.4979 21.8762 30.3568L18.0604 29.7455L14.9568 27.6025ZM34.3188 29.7906L33.9381 30.2759L32.1521 32.5519C32.1519 32.5523 32.1516 32.5526 32.1513 32.553L34.3188 29.7906ZM34.3188 29.7906L34.0713 29.669C34.0637 29.6269 34.0539 29.5921 34.0456 29.5672L33.9376 29.6032L34.0456 29.5672C34.0238 29.5017 33.9164 29.1992 33.575 29.1085L32.6602 28.8481L32.6579 28.8474C31.8986 28.6352 31.2017 28.9415 30.628 29.3676C30.0552 29.7931 29.5129 30.4054 29.0216 30.99C29.0147 30.9974 28.9968 31.0135 28.9622 31.0372L26.7674 32.3674C26.7357 32.3836 26.7074 32.3924 26.6909 32.3951C26.6907 32.3952 26.6904 32.3952 26.6902 32.3952L23.5691 32.8584L23.2603 32.9042L23.1659 33.2017C23.0573 33.5437 22.8644 33.8453 22.6044 34.0689L22.6029 34.0701C22.2913 34.3402 21.9106 34.4787 21.5129 34.4787C21.4661 34.4787 21.4154 34.4745 21.3392 34.4675C21.3383 34.4674 21.3374 34.4674 21.3365 34.4673L15.669 33.8904C15.6686 33.8904 15.6682 33.8903 15.6678 33.8903C15.5689 33.8788 15.5041 33.7928 15.5139 33.7027L15.0169 33.6485M34.3188 29.7906L20.1261 38.7243L12.4762 36.5684L12.4698 36.5666L12.4698 36.5666C12.4286 36.5543 12.3884 36.5587 12.3461 36.5851L12.341 36.5883L12.341 36.5882L10.7287 37.569L10.2823 37.8406L10.0307 37.3826L6.4165 30.8059L6.18558 30.3857L6.59575 30.1373L9.33565 28.4786C9.33582 28.4785 9.336 28.4784 9.33618 28.4783C10.9086 27.5218 12.8194 27.4546 14.4451 28.2859L14.4744 28.3009L14.5015 28.3197L17.6882 30.5202C17.7162 30.5384 17.7381 30.5448 17.7499 30.5464L17.7625 30.5481L17.7625 30.5482L21.726 31.1797L21.726 31.1797C22.4793 31.2998 22.9574 32.0146 22.9192 32.7411L22.9187 32.7504L22.9186 32.7504C22.8899 33.1525 22.715 33.5382 22.3933 33.8087C22.1149 34.0452 21.7522 34.1682 21.3783 34.1255L15.7052 33.5481L15.7035 33.5479C15.6071 33.5377 15.5252 33.6012 15.5138 33.7037L15.0169 33.6485M15.0169 33.6485C15.0572 33.2858 15.3729 33.0103 15.7559 33.0506L23.6424 33.3529C23.5081 33.7762 23.2663 34.1591 22.9304 34.4479C22.5273 34.7973 22.0302 34.9787 21.5129 34.9787C21.439 34.9787 21.3651 34.9719 21.2912 34.9652L15.6147 34.3875C15.2453 34.3471 14.9766 34.018 15.0169 33.6485ZM33.6834 28.7821L33.7484 28.8006C34.0497 28.9073 34.2893 29.1496 34.3931 29.4698L34.3938 29.4718C34.5107 29.8273 34.4434 30.2089 34.2212 30.4901L34.2201 30.4915L32.4333 32.7687C31.6734 33.7364 30.797 34.5997 29.8307 35.3326C28.8303 36.0892 27.6484 36.7115 26.1904 37.228L26.1903 37.2281L21.1343 39.0208C20.9255 39.0919 20.7258 39.1273 20.5261 39.1273C20.3616 39.1273 20.2006 39.1062 20.0408 39.0598L20.0408 39.0598L20.0369 39.0587L12.6674 36.983L12.4582 36.9241L12.2725 37.0367L10.855 37.8966L10.445 38.1454L10.6764 38.5654L11.2205 39.5529L11.221 39.5537C11.2641 39.6316 11.2398 39.7339 11.157 39.7845C11.1569 39.7846 11.1568 39.7847 11.1567 39.7847L6.73011 42.4715L6.73009 42.4715L6.72454 42.475C6.69711 42.4921 6.66813 42.4997 6.64023 42.4997C6.61616 42.4997 6.59781 42.497 6.58852 42.4949C6.53903 42.4814 6.50775 42.4541 6.48871 42.419L6.48872 42.419L6.48726 42.4163L0.521859 31.5604L0.521179 31.5591C0.477998 31.4811 0.502402 31.3787 0.585339 31.3281C0.585384 31.3281 0.585428 31.3281 0.585472 31.3281L5.00724 28.6442C5.05726 28.6159 5.10721 28.6121 5.1466 28.6228L5.1511 28.6239C5.20206 28.6372 5.23407 28.6648 5.25344 28.7005L5.25342 28.7005L5.25571 28.7047L5.77297 29.6385L6.02488 30.0932L6.46948 29.8238L9.16327 28.1914C9.16328 28.1914 9.16329 28.1914 9.16331 28.1914C10.8551 27.1664 12.9066 27.0991 14.6524 28.0059L14.6873 28.024L17.7764 30.157L17.8695 30.2213L17.9813 30.2392L21.7971 30.8505L21.7976 30.8506C22.4799 30.9592 23.0156 31.4607 23.2015 32.1298L23.3196 32.5551L23.7563 32.4906L26.5307 32.0808L26.6308 32.0661L26.7172 32.0135L28.7191 30.7976L28.7889 30.7552L28.8416 30.6928C29.3182 30.1283 29.9001 29.4583 30.5842 28.9901C31.2581 28.529 31.9777 28.2991 32.7635 28.5202C32.7638 28.5203 32.7641 28.5204 32.7644 28.5205L33.6834 28.7821ZM6.45726 41.6218L6.70865 42.0788L7.15467 41.8083L10.433 39.8198L10.8427 39.5713L10.6118 39.1514L5.29126 29.4777L5.03987 29.0207L4.59385 29.2912L1.31556 31.2797L0.905806 31.5282L1.13676 31.9481L6.45726 41.6218Z" fill="#2F91DE" stroke="#2F91DE"/>
<path d="M28.0056 4.97095C28.0056 7.44144 25.9932 9.44879 23.5208 9.44879C21.0489 9.44879 19.0361 7.43502 19.0361 4.97095C19.0361 2.50779 21.048 0.5 23.5208 0.5C25.9942 0.5 28.0056 2.50136 28.0056 4.97095ZM27.6619 4.97074C27.6619 2.69086 25.8038 0.843129 23.5208 0.843129C21.2385 0.843129 19.3798 2.68356 19.3798 4.97074C19.3798 7.25672 21.2373 9.10505 23.5208 9.10505C25.805 9.10505 27.6619 7.24941 27.6619 4.97074Z" fill="#2F91DE" stroke="#2F91DE"/>
<path d="M33.3035 11.1314C35.1778 11.1314 36.7027 9.60642 36.7027 7.73219C36.7027 5.85796 35.1777 4.33301 33.3035 4.33301C31.4292 4.33301 29.9043 5.85796 29.9043 7.73219C29.9043 9.60642 31.4292 11.1314 33.3035 11.1314ZM33.3035 5.68319C34.4388 5.68319 35.3591 6.60352 35.3591 7.73881C35.3591 8.87411 34.4388 9.79444 33.3035 9.79444C32.1682 9.79444 31.2479 8.87411 31.2479 7.73881C31.2479 6.60352 32.1749 5.68319 33.3035 5.68319Z" fill="#2F91DE"/>
<path d="M37.7911 17.9657L37.8089 18.123C37.8242 18.6296 37.6427 19.1256 37.3037 19.5034C36.9286 19.9214 36.3855 20.1636 35.8217 20.1636H30.9583H30.3976L30.4615 20.7206L30.5082 21.1272C30.5083 21.1278 30.5083 21.1284 30.5084 21.129C30.6004 21.9845 30.3277 22.8492 29.7538 23.4863L29.7523 23.488C29.1754 24.1341 28.3504 24.5033 27.4852 24.5033H19.5648C18.6996 24.5033 17.8747 24.1341 17.2977 23.488L17.2962 23.4863C16.7201 22.8468 16.4436 21.9883 16.5415 21.1301L16.5885 20.7206L16.6524 20.1636H16.0918H11.2283C10.6646 20.1636 10.1215 19.9214 9.7463 19.5034C9.37358 19.0881 9.19423 18.5248 9.25321 17.9567L9.54183 15.4061L9.54189 15.4055C9.78235 13.2595 11.5845 11.6445 13.7408 11.6445C14.7794 11.6445 15.7822 12.0287 16.5571 12.7255L16.5573 12.7257C16.9076 13.0404 17.2031 13.4247 17.4342 13.8444L17.8064 14.5202L18.2712 13.9045C19.5049 12.2706 21.4421 11.2549 23.522 11.2549C25.1445 11.2549 26.6982 11.8535 27.9035 12.9335C28.2278 13.2267 28.5214 13.5516 28.7777 13.8953L29.2411 14.5171L29.6162 13.8383C30.3443 12.5205 31.7386 11.6512 33.3033 11.6512C34.3419 11.6512 35.3447 12.0354 36.1196 12.7322C36.8956 13.43 37.388 14.3856 37.502 15.4182L37.5022 15.4196L37.7911 17.9657ZM9.59643 18.0008L9.5964 18.0008L9.59593 18.0053C9.54768 18.4685 9.69415 18.9237 10.009 19.2767C10.2402 19.5359 10.5361 19.7098 10.8625 19.7848L10.8835 19.8469H11.2421H16.2535H16.7017L16.7505 19.4013L16.9991 17.1307L16.9993 17.1281C17.03 16.8337 17.0854 16.543 17.1605 16.2553L17.1662 16.2335L17.1699 16.2113C17.1726 16.1951 17.1741 16.1875 17.1752 16.1828C17.176 16.1792 17.1767 16.1766 17.1779 16.173L17.184 16.1548L17.1886 16.1362C17.2548 15.8715 17.3463 15.6136 17.4543 15.3533L17.4685 15.319L17.4775 15.283L17.4808 15.2694L17.5498 15.1314L17.5038 14.9508C17.3122 14.1999 16.9055 13.5145 16.3255 12.996C15.6162 12.3565 14.698 12.0015 13.741 12.0015C11.7605 12.0015 10.1016 13.4821 9.88518 15.4557C9.88514 15.456 9.88511 15.4564 9.88507 15.4567L9.59643 18.0008ZM29.4901 23.2684L29.9276 22.7815L29.8428 22.7389C30.0985 22.2604 30.205 21.7109 30.1459 21.1671L30.1456 21.165L30.0077 19.9435V19.9376L30.0047 19.9105L29.7024 17.1494L29.7025 17.1494L29.7019 17.1451C29.6222 16.4711 29.4407 15.8151 29.1552 15.2068C28.8036 14.4385 28.299 13.7592 27.6657 13.1912C26.525 12.1606 25.0485 11.5984 23.5154 11.5984C21.0968 11.5984 18.8845 13.0151 17.8689 15.2068C17.5842 15.8203 17.4021 16.4696 17.3221 17.1525L17.3217 17.1562L17.0194 19.9173L17.0165 19.9444V19.9503L16.8786 21.1718L16.8783 21.1738C16.7962 21.9297 17.0338 22.6965 17.5476 23.2684C18.0583 23.8367 18.7911 24.1665 19.5587 24.1665H27.479C28.2466 24.1665 28.9794 23.8367 29.4901 23.2684ZM37.0354 19.2767L37.7782 18.4439H37.429C37.4527 18.2991 37.4573 18.15 37.442 17.9997L37.442 17.9997L37.4413 17.9941L37.1529 15.4522C37.1529 15.4515 37.1528 15.4507 37.1527 15.4499C37.0516 14.4915 36.5953 13.6208 35.8889 12.9834L35.8869 12.9816C35.172 12.3437 34.2546 11.9881 33.2968 11.9881C31.5072 11.9881 29.9574 13.2141 29.533 14.9346L29.489 15.1133L29.5542 15.2437C29.5559 15.25 29.5579 15.2568 29.5601 15.2639C29.5661 15.283 29.5744 15.3068 29.5863 15.3334C29.6911 15.5931 29.7813 15.8468 29.8536 16.1081C29.8602 16.1404 29.8675 16.1669 29.8712 16.1804L29.872 16.1835C29.8739 16.1903 29.875 16.1945 29.8755 16.1966L29.8775 16.2084L29.8815 16.2253C29.9516 16.5185 30.0083 16.8149 30.046 17.1152L30.3009 19.3827L30.3508 19.8268H30.7978H35.8091C36.2806 19.8268 36.7187 19.6318 37.0354 19.2767Z" fill="#2F91DE" stroke="#2F91DE"/>
<path d="M13.74 11.1314C15.6143 11.1314 17.1392 9.60642 17.1392 7.73219C17.1392 5.85796 15.6142 4.33301 13.74 4.33301C11.8658 4.33301 10.3408 5.85796 10.3408 7.73219C10.3408 9.60642 11.8658 11.1314 13.74 11.1314ZM13.74 5.68319C14.8753 5.68319 15.7956 6.60352 15.7956 7.73881C15.7956 8.87411 14.8686 9.79444 13.74 9.79444C12.6114 9.79444 11.6844 8.87411 11.6844 7.73881C11.6844 6.60352 12.6047 5.68319 13.74 5.68319Z" fill="#2F91DE"/>
</svg>
