<svg width="48" height="44" viewBox="0 0 48 44" fill="none" xmlns="http://www.w3.org/2000/svg">
<path d="M42.5662 33.9252V33.9251H40.9089V13.1547C40.9089 12.9101 40.7102 12.7142 40.4683 12.7142C40.2237 12.7142 40.0277 12.9129 40.0277 13.1547V33.9268H38.208V16.3428C38.208 16.0981 38.0092 15.9022 37.7674 15.9022C37.5227 15.9022 37.3268 16.1009 37.3268 16.3428V33.9251H9.97564L9.97399 14.9525H26.2715C26.5161 14.9525 26.7121 14.7538 26.7121 14.5119C26.7121 14.2673 26.5133 14.0713 26.2715 14.0713H9.53157C9.28692 14.0713 9.09099 14.2701 9.09099 14.5119V33.9252H7.27123L7.2729 13.1548V13.1548C7.2729 12.658 7.6779 12.2517 8.17605 12.2517H28.4733C28.718 12.2517 28.9139 12.0529 28.9139 11.8111L28.9139 11.8095C28.9114 11.567 28.716 11.3705 28.4717 11.3705H8.17437C7.18942 11.3705 6.39003 12.1718 6.39003 13.1549V33.9268L4.73283 33.9252H4.73269C4.48806 33.9252 4.29214 34.124 4.29211 34.3658C4.29211 34.3658 4.29211 34.3658 4.29211 34.3658L4.29043 38.3382V38.3383C4.29043 39.817 5.49304 41.0196 6.97171 41.0196H40.3268C41.8055 41.0196 43.0081 39.817 43.0081 38.3383V34.3675C43.0081 34.1236 42.8101 33.9255 42.5662 33.9252ZM17.1206 34.8063L30.1786 34.8079L29.3786 36.4465L29.3785 36.4468C29.2289 36.7544 28.9102 36.9536 28.5677 36.9536L18.7315 36.9519C18.3894 36.9519 18.0718 36.7531 17.9205 36.4446L17.1206 34.8063ZM42.1256 38.3382C42.1256 38.3382 42.1256 38.3382 42.1256 38.3382C42.1255 39.3304 41.3193 40.1366 40.3272 40.1366H6.97205C5.9799 40.1366 5.17364 39.3303 5.17364 38.3382V34.808H16.1384L17.1285 36.8334C17.4258 37.4427 18.0543 37.8347 18.7314 37.8347H28.5659C29.243 37.8347 29.8715 37.4426 30.1688 36.8334L31.1589 34.808H42.1238L42.1256 38.3382Z" fill="#2F91DE" stroke="#2F91DE" stroke-width="0.3"/>
<path d="M13.7733 24.1727L13.7736 24.1724L13.78 24.166C14.0702 23.8774 14.466 23.4838 15.2063 23.4838C15.9498 23.4838 16.3472 23.879 16.6375 24.1676L16.6437 24.1737C16.7802 24.3086 16.8868 24.4134 17.0096 24.488C17.1266 24.559 17.2617 24.6041 17.4537 24.6041C17.6477 24.6041 17.7841 24.5589 17.9018 24.4877C18.0252 24.413 18.1322 24.3078 18.2684 24.1724L18.2727 24.1681C18.5635 23.879 18.961 23.4838 19.7062 23.4838C20.4497 23.4838 20.8474 23.8809 21.1371 24.1707C21.2771 24.3095 21.3891 24.4176 21.515 24.4912L21.8259 20.9827C21.8259 20.9825 21.826 20.9824 21.826 20.9822C21.8389 20.8267 21.9046 20.6769 22.0085 20.5622C22.0087 20.562 22.0088 20.5619 22.009 20.5617L36.6784 4.12203L36.6785 4.12198C37.2107 3.52618 37.9432 3.17412 38.7402 3.12817L38.7406 3.12815C39.5393 3.084 40.3055 3.3511 40.9014 3.88329C42.1322 4.98154 42.24 6.87523 41.1418 8.10611L41.1418 8.10614L39.5923 9.84185L40.5049 10.6557L40.5052 10.656C40.6485 10.7846 40.7357 10.9627 40.7463 11.1575C40.7463 11.1575 40.7463 11.1576 40.7463 11.1576L40.5965 11.1657C40.6049 11.3186 40.5529 11.4681 40.4504 11.5823L13.7733 24.1727ZM13.7733 24.1727C13.6378 24.3082 13.5316 24.4132 13.4091 24.4879C13.2923 24.559 13.1569 24.6041 12.9639 24.6041C12.8937 24.6041 12.8357 24.5968 12.789 24.5852M13.7733 24.1727L40.5621 11.6825L39.4167 12.9655L35.8457 16.9665L35.8456 16.9666C35.7596 17.0628 35.6397 17.114 35.5171 17.114C35.414 17.114 35.3086 17.0786 35.2237 17.0017C35.0415 16.8391 35.0258 16.5596 35.1887 16.3785C35.1888 16.3784 35.1889 16.3783 35.189 16.3782L38.7596 12.3777L38.8715 12.4776L38.7596 12.3777L39.8049 11.2067L39.0065 10.4987L30.8303 19.6588L30.8302 19.6588L26.4697 24.5482C26.3659 24.6647 26.2264 24.745 26.0742 24.7767L26.0737 24.7768L22.3617 25.5373C22.3614 25.5374 22.3611 25.5375 22.3608 25.5375C22.3098 25.5485 22.2589 25.5525 22.2122 25.5525C22.1084 25.5525 22.0135 25.5231 21.9321 25.4869C21.2013 25.4799 20.8083 25.0892 20.5206 24.8032L20.5145 24.797C20.3779 24.6622 20.2714 24.5574 20.1485 24.4828C20.0316 24.4117 19.8965 24.3666 19.7045 24.3666C19.5105 24.3666 19.3741 24.4119 19.2564 24.4831C19.133 24.5578 19.026 24.663 18.8897 24.7984C18.8897 24.7984 18.8897 24.7984 18.8897 24.7984L18.8854 24.8027C18.5946 25.0918 18.1971 25.487 17.452 25.487C16.7081 25.487 16.3105 25.0896 16.0207 24.7997L16.1267 24.6937L16.0207 24.7997C15.8843 24.6634 15.7778 24.558 15.6547 24.4832C15.5374 24.4119 15.4011 24.3666 15.2063 24.3666C15.0133 24.3666 14.8778 24.4118 14.7611 24.4829C14.6385 24.5575 14.5324 24.6626 14.3969 24.7981L14.3966 24.7984L14.3901 24.8048C14.0999 25.0934 13.7041 25.487 12.9639 25.487C12.82 25.487 12.6859 25.4706 12.5643 25.4383C12.3284 25.3764 12.1904 25.1341 12.2509 24.8997L12.251 24.8994C12.3126 24.6634 12.5546 24.5251 12.789 24.5852M12.789 24.5852C12.7893 24.5853 12.7895 24.5853 12.7897 24.5854L12.7523 24.7306L12.7886 24.5851C12.7888 24.5851 12.7889 24.5852 12.789 24.5852ZM37.3391 4.70919C37.339 4.70924 37.339 4.70929 37.339 4.70934L36.8858 5.22032L40.0318 8.02913L40.4861 7.51978L37.3391 4.70919ZM37.3391 4.70919C37.7138 4.2891 38.2286 4.04018 38.7912 4.00852M37.3391 4.70919L38.7912 4.00852M38.7912 4.00852C38.8348 4.00684 38.8752 4.00532 38.9151 4.00532C39.4324 4.00532 39.926 4.19321 40.3169 4.54172C41.1839 5.31625 41.2593 6.6508 40.4862 7.51965L38.7912 4.00852ZM21.9933 25.4817C21.9939 25.4815 21.9932 25.4817 21.9924 25.4819L21.9933 25.4817ZM30.173 19.0708L30.173 19.0708L26.1241 23.608L22.9768 20.7994L34.0176 8.43073L37.1633 11.2393L30.173 19.0708ZM25.2764 24.0361L22.3861 24.6352L22.6461 21.6889L25.2764 24.0361ZM36.2967 5.87616L39.4424 8.68468L37.7508 10.5806L34.6051 7.77208L36.2967 5.87616Z" fill="#2F91DE" stroke="#2F91DE" stroke-width="0.3"/>
<path d="M34.5643 29.9685C34.8092 29.9706 35.0069 29.7717 35.0069 29.5296C35.0069 29.2849 34.8082 29.089 34.5663 29.089L12.734 29.0873H12.7339C12.4893 29.0873 12.2934 29.286 12.2934 29.5279C12.2934 29.7725 12.4921 29.9685 12.7339 29.9685H34.5643ZM34.5643 29.9685C34.5641 29.9685 34.5638 29.9685 34.5635 29.9685L34.565 29.8185M34.5643 29.9685H34.565V29.8185M34.565 29.8185H12.7339C12.5744 29.8185 12.4434 29.6891 12.4434 29.5279C12.4434 29.3683 12.5727 29.2373 12.7339 29.2373L34.5663 29.239C34.7259 29.239 34.8569 29.3683 34.8569 29.5296C34.8569 29.6891 34.7263 29.8202 34.565 29.8185Z" fill="#2F91DE" stroke="#2F91DE" stroke-width="0.3"/>
<path d="M12.7339 27.4958H21.4346C21.6792 27.4958 21.8752 27.2971 21.8752 27.0552C21.8752 26.8106 21.6764 26.6146 21.4346 26.6146H12.7339C12.4893 26.6146 12.2934 26.8134 12.2934 27.0552C12.2934 27.2999 12.4921 27.4958 12.7339 27.4958Z" fill="#2F91DE" stroke="#2F91DE" stroke-width="0.3"/>
<path d="M35.005 27.0568C35.0076 26.8107 34.8077 26.6146 34.5662 26.6146H25.8638C25.6192 26.6146 25.4232 26.8134 25.4232 27.0552C25.4232 27.2999 25.622 27.4958 25.8638 27.4958H34.5644C34.8086 27.4958 35.0042 27.2979 35.005 27.0568ZM35.005 27.0568L34.855 27.0552H35.005C35.005 27.0558 35.005 27.0563 35.005 27.0568Z" fill="#2F91DE" stroke="#2F91DE" stroke-width="0.3"/>
<path d="M12.734 31.5609H12.7339C12.4893 31.5609 12.2934 31.7597 12.2934 32.0015C12.2934 32.2462 12.4921 32.4421 12.7339 32.4421C12.7339 32.4421 12.7339 32.4421 12.7339 32.4421L34.1398 32.4438C34.3844 32.4438 34.5804 32.245 34.5804 32.0032C34.5804 31.7585 34.3816 31.5626 34.1398 31.5626L12.734 31.5609Z" fill="#2F91DE" stroke="#2F91DE" stroke-width="0.3"/>
<path d="M18.0885 22.643L18.0881 22.6423C17.6048 21.6964 16.6453 21.1082 15.5829 21.1065C15.5828 21.1065 15.5828 21.1065 15.5827 21.1065M18.0885 22.643L15.5795 20.9565H15.5829L15.5827 21.1065M18.0885 22.643C18.1998 22.8581 18.4644 22.9459 18.682 22.8332L18.682 22.8332C18.8968 22.722 18.9847 22.4579 18.8726 22.2404C18.4732 21.4591 17.8243 20.8701 17.0523 20.5369C17.5013 20.1332 17.7872 19.5491 17.7872 18.8972C17.7872 17.6789 16.7962 16.6879 15.5778 16.6879C14.3595 16.6879 13.3685 17.6789 13.3685 18.8972C13.3685 19.5491 13.6532 20.1334 14.1034 20.5373C13.3344 20.8705 12.6859 21.4592 12.2867 22.2401C12.1749 22.4565 12.261 22.7234 12.4776 22.8335C12.5422 22.8669 12.6113 22.8819 12.6787 22.8819C12.8372 22.8819 12.9936 22.7964 13.0712 22.6418C13.5546 21.6962 14.5141 21.1082 15.5762 21.1065M18.0885 22.643L15.5762 21.1065M15.5827 21.1065L15.5795 21.1065L15.5764 21.1065M15.5827 21.1065H15.5764M15.5764 21.1065L15.5762 21.1065M15.5764 21.1065L15.5762 21.1065M14.2531 18.8972C14.2531 18.1654 14.8495 17.5691 15.5813 17.5691C16.3128 17.5691 16.9077 18.1652 16.9077 18.8972C16.9077 19.6274 16.3146 20.222 15.5845 20.2237H15.5812H15.578C14.8461 20.222 14.2531 19.6273 14.2531 18.8972Z" fill="#2F91DE" stroke="#2F91DE" stroke-width="0.3"/>
</svg>
