<svg width="48" height="49" viewBox="0 0 48 49" fill="none" xmlns="http://www.w3.org/2000/svg">
<path d="M33.5246 42.9959L39.047 37.4735H35.2491C34.7739 37.4735 34.3408 37.6683 34.0302 37.9789C33.7195 38.2912 33.5248 38.7227 33.5248 39.1978L33.5246 42.9959ZM16.409 40.8132C15.9355 40.8132 15.5527 40.4304 15.5527 39.9569C15.5527 39.4834 15.9355 39.1006 16.409 39.1006L29.2032 39.0989C29.6766 39.0989 30.0594 39.4817 30.0594 39.9552C30.0594 40.4287 29.6766 40.8115 29.2032 40.8115L16.409 40.8132ZM17.863 37.2184C17.3878 37.2184 17.0034 36.8339 17.0034 36.3588C17.0034 35.8836 17.3878 35.4991 17.863 35.4991H29.2031C29.6782 35.4991 30.0627 35.8836 30.0627 36.3588C30.0627 36.834 29.6782 37.2184 29.2031 37.2184H17.863ZM17.0789 33.6203C16.6037 33.6203 16.2193 33.2358 16.2193 32.7607C16.2193 32.2855 16.6038 31.901 17.0789 31.901H36.8122C37.2873 31.901 37.6718 32.2855 37.6718 32.7607C37.6718 33.2358 37.2873 33.6203 36.8122 33.6203H17.0789ZM15.091 30.0222C14.6158 30.0222 14.2313 29.6377 14.2313 29.1626C14.2313 28.6874 14.6158 28.3029 15.091 28.3029H36.8122C37.2873 28.3029 37.6718 28.6874 37.6718 29.1626C37.6718 29.6377 37.2873 30.0222 36.8122 30.0222H15.091ZM26.0665 24.7049C26.5417 24.7049 26.9262 25.0894 26.9262 25.5645C26.9262 26.0397 26.5417 26.4242 26.0665 26.4242H15.1512C14.676 26.4242 14.2915 26.0397 14.2915 25.5645C14.2915 25.0893 14.676 24.7049 15.1512 24.7049H26.0665ZM29.3557 16.8154C29.7016 16.5384 30.0827 16.305 30.494 16.1203C30.5629 16.0901 30.6334 16.0599 30.7039 16.0313C30.6435 15.9793 30.5847 15.9256 30.5276 15.8685C29.987 15.3278 29.6512 14.579 29.6512 13.7529C29.6512 12.9268 29.987 12.178 30.5276 11.6374C31.0683 11.0967 31.8171 10.7609 32.6432 10.7609C33.4693 10.7609 34.2164 11.0967 34.7587 11.6374C35.2994 12.178 35.6352 12.9268 35.6352 13.7529C35.6352 14.579 35.2994 15.3262 34.7587 15.8685C34.7033 15.9239 34.6462 15.9776 34.5858 16.0297C35.2574 16.2966 35.8601 16.6979 36.3622 17.1999C37.3125 18.1502 37.9018 19.4666 37.9018 20.9189C37.9018 21.3941 37.5173 21.7786 37.0422 21.7786H15.091C14.6158 21.7786 14.2314 21.3941 14.2314 20.9189C14.2314 19.4666 14.8207 18.1519 15.771 17.1999C16.273 16.6979 16.8758 16.2966 17.5474 16.0297C17.4869 15.9776 17.4298 15.9256 17.3744 15.8685C16.8338 15.3278 16.498 14.579 16.498 13.7529C16.498 12.9268 16.8338 12.178 17.3744 11.6374C17.9151 11.0967 18.6639 10.7609 19.49 10.7609C20.3161 10.7609 21.0632 11.0967 21.6055 11.6374C22.1462 12.178 22.482 12.9268 22.482 13.7529C22.482 14.579 22.1462 15.3262 21.6055 15.8685C21.5485 15.9256 21.4897 15.9793 21.4292 16.0313C21.4998 16.0599 21.5703 16.0884 21.6391 16.1203C22.0488 16.305 22.4316 16.5384 22.7758 16.8154C23.1804 16.4897 23.6338 16.2244 24.124 16.0297C24.0636 15.9776 24.0065 15.9256 23.9511 15.8685C23.4105 15.3279 23.0746 14.579 23.0746 13.7529C23.0746 12.9269 23.4104 12.178 23.9511 11.6374C24.4917 11.0967 25.2406 10.7609 26.0666 10.7609C26.8927 10.7609 27.6399 11.0967 28.1822 11.6374C28.7228 12.178 29.0587 12.9269 29.0587 13.7529C29.0587 14.579 28.7229 15.3262 28.1822 15.8685C28.1268 15.9239 28.0697 15.9776 28.0093 16.0297C28.4995 16.2244 28.9511 16.4914 29.3557 16.8154ZM31.2547 20.0593H36.0769C35.919 19.428 35.5916 18.8621 35.145 18.4155C34.5053 17.7758 33.6188 17.3796 32.6416 17.3796C32.1211 17.3796 31.6292 17.4904 31.191 17.6868C30.9458 17.796 30.7158 17.9353 30.5026 18.0965C30.8753 18.6825 31.1372 19.3457 31.2531 20.0593L31.2547 20.0593ZM33.5415 12.8546C33.3114 12.6245 32.9924 12.4818 32.6415 12.4818C32.2905 12.4818 31.9716 12.6245 31.7415 12.8546C31.5115 13.0846 31.3688 13.4036 31.3688 13.7545C31.3688 14.1055 31.5115 14.4245 31.7415 14.6545C31.9715 14.8845 32.2905 15.0272 32.6415 15.0272C32.9924 15.0272 33.3114 14.8845 33.5415 14.6545C33.7715 14.4245 33.9142 14.1055 33.9142 13.7545C33.9142 13.4036 33.7715 13.0846 33.5415 12.8546ZM21.6289 18.0963C21.4156 17.9334 21.1856 17.7957 20.9405 17.6866C20.5006 17.4902 20.0103 17.3793 19.4898 17.3793C18.5126 17.3793 17.6278 17.7756 16.9864 18.4153C16.5398 18.8619 16.2124 19.4261 16.0546 20.059H20.8768C20.9943 19.3454 21.2545 18.6823 21.6273 18.0963L21.6289 18.0963ZM20.3898 12.8546C20.1597 12.6245 19.8408 12.4818 19.4898 12.4818C19.1389 12.4818 18.8199 12.6245 18.5898 12.8546C18.3598 13.0846 18.2171 13.4036 18.2171 13.7545C18.2171 14.1055 18.3598 14.4245 18.5898 14.6545C18.8199 14.8845 19.1389 15.0272 19.4898 15.0272C19.8408 15.0272 20.1597 14.8845 20.3898 14.6545C20.6198 14.4245 20.7625 14.1055 20.7625 13.7545C20.7625 13.4036 20.6198 13.0846 20.3898 12.8546ZM23.5631 18.4156C23.1164 18.8623 22.789 19.4264 22.6312 20.0594H29.4998C29.342 19.428 29.0146 18.8622 28.568 18.4156C27.9282 17.7759 27.0417 17.3797 26.0646 17.3797C25.0874 17.3797 24.2026 17.7759 23.5612 18.4156H23.5631ZM26.9648 12.8546C26.7347 12.6245 26.4157 12.4818 26.0648 12.4818C25.7138 12.4818 25.3949 12.6245 25.1648 12.8546C24.9348 13.0846 24.7921 13.4036 24.7921 13.7545C24.7921 14.1055 24.9348 14.4245 25.1648 14.6545C25.3948 14.8845 25.7138 15.0272 26.0648 15.0272C26.4157 15.0272 26.7347 14.8845 26.9648 14.6545C27.1948 14.4245 27.3375 14.1055 27.3375 13.7545C27.3375 13.4036 27.1948 13.0846 26.9648 12.8546ZM6.89581 45.4993C6.66075 45.909 6.13692 46.05 5.72721 45.815C5.3175 45.5799 5.17652 45.0561 5.41155 44.6464L8.13153 39.935C7.99721 39.8259 7.87128 39.7101 7.74872 39.5875C6.79842 38.6372 6.20908 37.3209 6.20908 35.8685C6.20908 34.4162 6.79842 33.1015 7.74872 32.1496C8.40183 31.4964 9.22624 31.0146 10.1497 30.7745V9.08508C10.1497 8.13813 10.5358 7.27849 11.1588 6.65558C11.78 6.03436 12.6413 5.64648 13.5883 5.64648H38.5417C39.4887 5.64648 40.3483 6.03266 40.9712 6.65558C41.5941 7.27849 41.9803 8.13813 41.9803 9.08508V42.4906C41.9803 43.4376 41.5942 44.2972 40.9712 44.9201C40.35 45.5413 39.4887 45.9292 38.5417 45.9292H13.5883C12.6464 45.9292 11.7867 45.543 11.1638 44.9201L11.1588 44.9151C10.5375 44.2905 10.1513 43.4342 10.1513 42.4923V40.9594C9.96833 40.9123 9.78868 40.8553 9.61406 40.7898L6.89744 45.4959L6.89581 45.4993ZM11.8689 30.6265C13.16 30.7239 14.3219 31.2897 15.1849 32.1511C16.1352 33.1014 16.7245 34.4177 16.7245 35.87C16.7245 37.3224 16.1352 38.637 15.1849 39.589C14.3236 40.4503 13.16 41.0162 11.8689 41.1135V42.4953C11.8689 42.9688 12.062 43.3987 12.3709 43.7076C12.6832 44.0199 13.1131 44.213 13.5882 44.213H31.8054V39.1995C31.8054 38.2542 32.1933 37.3929 32.8145 36.77C33.4408 36.1437 34.3038 35.7559 35.2474 35.7559H40.2609V9.08655C40.2609 8.61473 40.0661 8.1849 39.7555 7.87264C39.4449 7.56202 39.0134 7.36725 38.5416 7.36725H13.5881C13.1163 7.36725 12.6865 7.56201 12.3742 7.87264C12.0619 8.18493 11.8688 8.61477 11.8688 9.08655L11.8689 30.6265ZM13.9693 33.3666C13.3296 32.7269 12.4431 32.3307 11.4659 32.3307C10.4888 32.3307 9.60392 32.7269 8.96254 33.3666C8.32283 34.0064 7.92658 34.8929 7.92658 35.87C7.92658 36.8472 8.32282 37.732 8.96254 38.3734C9.60225 39.0131 10.4888 39.4094 11.4659 39.4094C12.4431 39.4094 13.3279 39.0131 13.9693 38.3734C14.609 37.7337 15.0053 36.8472 15.0053 35.87C15.0053 34.8929 14.609 34.008 13.9693 33.3666ZM34.7384 44.2128H38.5414C39.0132 44.2128 39.443 44.0181 39.7553 43.7075C40.0676 43.3952 40.2607 42.9653 40.2607 42.4935V38.6906L34.7384 44.2128Z" fill="#2F91DE"/>
</svg>
