<svg width="48" height="44" viewBox="0 0 48 44" fill="none" xmlns="http://www.w3.org/2000/svg">
<path d="M38.9999 6.92869H32.8638V4.23261C32.8467 3.34964 31.5189 3.34291 31.5001 4.23261V6.92869H24.682V4.23261C24.682 3.86022 24.3768 3.55859 24.0001 3.55859C23.6234 3.55859 23.3183 3.86022 23.3183 4.23261V6.92869H16.5001V4.23261C16.4899 3.353 15.1501 3.34291 15.1365 4.23261V6.92869H9.00036C8.24863 6.92869 7.63672 7.53361 7.63672 8.27673V39.9559C7.63672 40.699 8.24863 41.3039 9.00036 41.3039H39.0004C39.7521 41.3039 40.364 40.699 40.364 39.9559V8.27673C40.364 7.53361 39.7516 6.92869 38.9999 6.92869ZM15.1361 8.27673V10.9728C15.1548 11.8592 16.4826 11.8592 16.4997 10.9728V8.27673H23.3179V10.9728C23.3332 11.8592 24.6662 11.8592 24.6815 10.9728V8.27673H31.4997V10.9728C31.4997 11.3452 31.8048 11.6468 32.1815 11.6468C32.5582 11.6468 32.8633 11.3452 32.8633 10.9728V8.27673H38.9995V14.3427H8.99948V8.27673H15.1361ZM14.0554 31.1934H17.8633V34.9578L14.0554 31.1934ZM17.8633 29.8454H13.0904V15.6912H34.9086V35.9118H19.2265V31.1934C19.2265 30.4503 18.6151 29.8454 17.8633 29.8454ZM8.99992 39.9559V15.6912H11.7272V30.5196C11.7272 30.6982 11.8005 30.8718 11.9266 30.9965L18.0628 37.0624C18.1258 37.1248 18.1991 37.1737 18.2827 37.2074C18.3645 37.2411 18.4548 37.2596 18.5452 37.2596H34.9088C35.6605 37.2596 36.2724 36.6547 36.2724 35.9115V15.691H38.9997V39.9557L8.99992 39.9559Z" fill="white"/>
<path d="M15.8183 19.0614H17.8637V21.0835C17.8774 21.9681 19.212 21.9698 19.2274 21.0835V18.3874C19.2274 18.015 18.9223 17.7134 18.5456 17.7134H15.8183C14.9234 17.7285 14.9217 19.0462 15.8183 19.0614Z" fill="white"/>
<path d="M19.2276 24.4538C19.2276 24.0814 18.9225 23.7798 18.5458 23.7798H15.8185C15.4418 23.7798 15.1367 24.0814 15.1367 24.4538C15.1367 24.8262 15.4418 25.1278 15.8185 25.1278H17.864V27.1499C17.8776 28.0345 19.2123 28.0362 19.2276 27.1499V24.4538Z" fill="white"/>
<path d="M22.6367 19.0614H24.6821V21.0835C24.6957 21.9681 26.0304 21.9698 26.0457 21.0835V18.3874C26.0457 18.015 25.7406 17.7134 25.3639 17.7134H22.6367C21.7418 17.7285 21.7401 19.0462 22.6367 19.0614Z" fill="white"/>
<path d="M22.6367 25.1273H24.6821V27.1494C24.6957 28.0341 26.0304 28.0357 26.0457 27.1494V24.4533C26.0457 24.0809 25.7406 23.7793 25.3639 23.7793H22.6367C21.7418 23.7945 21.7401 25.1122 22.6367 25.1273Z" fill="white"/>
<path d="M29.455 19.0614H31.5005V21.0835C31.5141 21.9681 32.8487 21.9698 32.8641 21.0835V18.3874C32.8641 18.015 32.559 17.7134 32.1823 17.7134H29.455C28.5601 17.7285 28.5584 19.0462 29.455 19.0614Z" fill="white"/>
<path d="M29.455 25.1273H31.5005V27.1494C31.5141 28.0341 32.8487 28.0357 32.8641 27.1494V24.4533C32.8641 24.0809 32.559 23.7793 32.1823 23.7793H29.455C28.5601 23.7945 28.5584 25.1122 29.455 25.1273Z" fill="white"/>
<path d="M22.6367 31.1933H24.6821V33.2153C24.6957 34.1 26.0304 34.1017 26.0457 33.2153V30.5192C26.0457 30.1468 25.7406 29.8452 25.3639 29.8452H22.6367C21.7418 29.8604 21.7401 31.1781 22.6367 31.1933Z" fill="white"/>
<path d="M29.455 31.1933H31.5005V33.2153C31.5141 34.1 32.8487 34.1017 32.8641 33.2153V30.5192C32.8641 30.1468 32.559 29.8452 32.1823 29.8452H29.455C28.5601 29.8604 28.5584 31.1781 29.455 31.1933Z" fill="white"/>
</svg>
