<svg width="51" height="47" viewBox="0 0 51 47" fill="none" xmlns="http://www.w3.org/2000/svg">
<path d="M22.5221 5.24707C17.8856 5.24707 14.0978 8.84866 14.0978 13.2661C14.0978 17.6835 17.8855 21.2828 22.5221 21.2851C27.1587 21.2851 30.9416 17.6835 30.9416 13.2661C30.9416 8.84866 27.1587 5.24939 22.5221 5.24707ZM22.5221 7.27567C26.0103 7.27567 28.8087 9.94574 28.8087 13.2638C28.8087 16.5819 26.0101 19.252 22.5221 19.252C19.0341 19.252 16.2307 16.5819 16.2307 13.2638C16.2307 9.94574 19.034 7.27567 22.5221 7.27567ZM22.6268 23.4501C13.8506 23.4501 6.71484 30.2726 6.71484 38.6543V40.497C6.71484 41.0591 7.19039 41.5124 7.77769 41.5124H26.153C26.4359 41.5124 26.7046 41.4059 26.9044 41.2155C27.1065 41.0251 27.2182 40.7667 27.2182 40.497C27.2158 39.9372 26.7403 39.4838 26.153 39.4838H8.84292V38.6565C8.84292 31.3675 15.0011 25.4855 22.6244 25.4855C24.5955 25.4991 26.462 25.9093 28.1478 26.6392V26.6369C28.4046 26.7503 28.6995 26.7571 28.9634 26.6619C29.2297 26.5667 29.4436 26.374 29.5578 26.1269C29.7979 25.6192 29.5625 25.0186 29.0276 24.7874C27.0755 23.9442 24.907 23.4637 22.6289 23.4524V23.4501H22.6242L22.6268 23.4501ZM35.0478 26.2923C30.4112 26.2923 26.6283 29.8939 26.6283 34.3113C26.6283 38.7289 30.4112 42.328 35.0478 42.3304C39.6844 42.3304 43.4673 38.7288 43.4673 34.3113C43.4673 29.8938 39.6844 26.2923 35.0478 26.2923ZM35.0478 28.3232C38.5359 28.3232 41.3393 30.9933 41.3393 34.3113C41.3393 37.6294 38.5359 40.2972 35.0478 40.2995C31.5597 40.2995 28.7563 37.6317 28.7563 34.3113C28.7563 30.993 31.5597 28.3232 35.0478 28.3232ZM35.0454 30.1841C34.4558 30.1841 33.9802 30.6396 33.9802 31.1995V33.2984H31.7784C31.4955 33.2984 31.2244 33.4049 31.0247 33.5953C30.825 33.7857 30.7132 34.0441 30.7132 34.3138C30.7132 34.8736 31.1887 35.327 31.7784 35.327H33.9802V37.4258C33.9802 37.988 34.4557 38.4413 35.0454 38.4413C35.6327 38.4413 36.1083 37.988 36.1083 37.4258V35.327H38.31C38.8973 35.327 39.3752 34.8737 39.3752 34.3138C39.3752 33.754 38.8997 33.2984 38.31 33.2984H36.1083V31.1995C36.1083 30.6397 35.6327 30.1841 35.0454 30.1841Z" fill="white"/>
</svg>
