<svg width="24" height="25" viewBox="0 0 24 25" fill="none" xmlns="http://www.w3.org/2000/svg">
<path d="M21.8873 14.2574H19.1993V13.5644C19.1993 12.7971 18.5993 12.1782 17.8553 12.1782H16.2953V4.50497C16.2953 4.40596 16.2473 4.30695 16.1993 4.2327C16.1993 4.20794 13.0793 1.01488 13.0793 1.01488C13.0073 0.940618 12.9113 0.915866 12.8153 0.891113H1.12734C0.791344 0.891113 0.527344 1.16339 0.527344 1.50993V23.2178C0.527344 23.5644 0.791344 23.8367 1.12734 23.8367H21.8873C22.7513 23.8367 23.4713 23.1188 23.4713 22.203V15.8911C23.4713 14.9753 22.7513 14.2574 21.8873 14.2574ZM15.5993 12.9456H17.8313C18.1673 12.9456 18.4313 13.2178 18.4313 13.5644V14.2574H14.9993V13.5644C14.9993 13.2426 15.2633 12.9456 15.5993 12.9456ZM13.1753 2.22775L14.9993 4.10894H13.1753V2.22775ZM10.2233 23.0693H1.29534V1.68319H12.4313V4.50497C12.4313 4.72775 12.5993 4.90101 12.8153 4.90101H15.5513V12.1782C14.8313 12.203 14.2553 12.8218 14.2553 13.5644V14.2574H11.5673C10.7033 14.2574 9.98334 14.9753 9.98334 15.8911V22.2277C9.98334 22.5248 10.0793 22.7971 10.2233 23.0693ZM22.7033 22.203C22.7033 22.6733 22.3433 23.0446 21.8873 23.0446H11.5673C11.1113 23.0446 10.7513 22.6733 10.7513 22.203V18.4654C10.9913 18.6139 11.2793 18.7129 11.5673 18.7129H13.2233V19.1584C13.2233 19.3812 13.3913 19.5545 13.6073 19.5545C13.8233 19.5545 13.9913 19.3812 13.9913 19.1584V18.7129H19.4873V19.1584C19.4873 19.3812 19.6553 19.5545 19.8713 19.5545C20.0873 19.5545 20.2553 19.3812 20.2553 19.1584V18.7129H21.9113C22.2233 18.7129 22.4873 18.6139 22.7273 18.4654V22.203H22.7033ZM22.7033 17.0792C22.7033 17.5495 22.3433 17.9208 21.8873 17.9208H20.2313V17.7228C20.2313 17.5 20.0633 17.3268 19.8473 17.3268C19.6313 17.3268 19.4633 17.5 19.4633 17.7228V17.9208H13.9913V17.7228C13.9913 17.5 13.8233 17.3268 13.6073 17.3268C13.3913 17.3268 13.2233 17.5 13.2233 17.7228V17.9208H11.5673C11.1113 17.9208 10.7513 17.5495 10.7513 17.0792V15.8664C10.7513 15.3961 11.1113 15.0248 11.5673 15.0248H21.8873C22.3433 15.0248 22.7033 15.3961 22.7033 15.8664V17.0792ZM4.15134 8.78715H6.76734C6.98334 8.78715 7.15134 8.61389 7.15134 8.39111C7.15134 7.7723 6.83934 7.22775 6.35934 6.90596C6.81534 6.2129 6.28734 5.2228 5.47134 5.24755C4.65534 5.2228 4.12734 6.2129 4.58334 6.90596C4.10334 7.20299 3.79134 7.74755 3.79134 8.39111C3.79134 8.61389 3.95934 8.78715 4.15134 8.78715ZM5.75934 6.33666C5.75934 6.7327 5.15934 6.7327 5.15934 6.33666C5.18334 5.94062 5.75934 5.94062 5.75934 6.33666ZM6.33534 7.99507H4.63134C4.91934 7.2525 6.02334 7.2525 6.33534 7.99507ZM5.47134 10.5198C7.17534 10.5198 8.56734 9.08418 8.56734 7.32676C8.39934 3.06933 2.51934 3.06933 2.35134 7.32676C2.37534 9.08418 3.76734 10.5198 5.47134 10.5198ZM5.47134 4.90101C6.76734 4.90101 7.82334 5.99012 7.82334 7.32676C7.70334 10.5446 3.23934 10.5446 3.11934 7.32676C3.11934 5.99012 4.17534 4.90101 5.47134 4.90101ZM9.59934 4.13369H11.1353C11.6393 4.13369 11.6393 4.90101 11.1353 4.90101H9.59934C9.09534 4.90101 9.09534 4.13369 9.59934 4.13369ZM9.59934 6.93072H13.9193C14.4233 6.93072 14.4233 7.69804 13.9193 7.69804H9.59934C9.09534 7.69804 9.09534 6.95547 9.59934 6.93072ZM13.9193 10.5198H9.59934C9.09534 10.5198 9.09534 9.7525 9.59934 9.7525H13.9193C14.4233 9.7525 14.4233 10.5198 13.9193 10.5198ZM12.6473 13.1188H2.92734C2.42334 13.1188 2.44734 12.3515 2.92734 12.3515H12.6473C13.1273 12.3515 13.1273 13.0941 12.6473 13.1188ZM8.90334 15.6931H2.90334C2.39934 15.6931 2.39934 14.9258 2.90334 14.9258H8.90334C9.40734 14.9258 9.40734 15.6931 8.90334 15.6931ZM8.90334 18.2674H2.90334C2.39934 18.2674 2.39934 17.5 2.90334 17.5H8.90334C9.40734 17.5 9.40734 18.2674 8.90334 18.2674ZM8.90334 20.8664H2.90334C2.39934 20.8664 2.39934 20.099 2.90334 20.099H8.90334C9.40734 20.099 9.40734 20.8664 8.90334 20.8664Z" fill="#303030"/>
</svg>
