<svg width="27" height="26" viewBox="0 0 27 26" fill="none" xmlns="http://www.w3.org/2000/svg">
<path d="M15.5398 13.6667V13.5167H22.1396C22.9029 13.5167 23.5946 13.3845 24.1496 13.1713V13.3316M15.5398 13.6667H15.3898V14.0574C15.3898 14.9466 14.6579 15.6794 13.7698 15.6794H13.2298C12.3417 15.6794 11.6099 14.9466 11.6099 14.0574V13.6667H11.4599M15.5398 13.6667H22.1396C22.8951 13.6667 23.5854 13.5401 24.1496 13.3316M15.5398 13.6667V14.0574C15.5398 15.0293 14.741 15.8294 13.7698 15.8294H13.2298C12.2587 15.8294 11.4599 15.0293 11.4599 14.0574V13.6667M11.4599 13.6667V13.5167H4.86004C4.09674 13.5167 3.40501 13.3845 2.85009 13.1713V13.3316M11.4599 13.6667H4.86004C4.10452 13.6667 3.41426 13.5401 2.85009 13.3316M2.85009 13.3316C2.79905 13.3127 2.74903 13.2932 2.70009 13.273V20.0049C2.70009 21.2124 3.65409 22.1676 4.86004 22.1676H22.1396C23.3456 22.1676 24.2996 21.2124 24.2996 20.0049V13.273C24.2506 13.2932 24.2006 13.3127 24.1496 13.3316M2.85009 13.3316V20.0049C2.85009 21.1298 3.73711 22.0176 4.86004 22.0176H22.1396C23.2625 22.0176 24.1496 21.1298 24.1496 20.0049V13.3316M2.10245 6.87889L2.10244 6.87872L1.62012 7.5694H1.47012V7.5697V11.8948V20.0049C1.47012 21.8755 2.99144 23.399 4.86004 23.399H22.1396C24.0082 23.399 25.5295 21.8755 25.5295 20.0049V11.8948V7.57271C25.5304 7.55238 25.5303 7.53202 25.5294 7.51169L25.5296 7.51168L25.5287 7.50274C25.5177 7.40023 25.4839 7.30147 25.4299 7.2137C25.3767 7.12748 25.3053 7.05402 25.2206 6.99853C25.2013 6.98417 25.1811 6.97085 25.1603 6.95861L25.1499 6.95248L25.1387 6.9481C25.121 6.94119 25.1029 6.93501 25.0847 6.92959C25.0462 6.9131 25.0064 6.90015 24.9655 6.89089L24.9526 6.88796L24.9394 6.88734C24.925 6.88666 24.9105 6.88643 24.8961 6.88666C24.8851 6.88437 24.8741 6.88235 24.8631 6.88059L24.8514 6.87874H24.8395H18.2397V5.40671C18.2397 4.76128 17.8683 4.23512 17.4435 3.97001C17.0261 3.7095 16.5767 3.63468 16.1998 3.63468L10.7999 3.63467C10.4229 3.63467 9.97354 3.70948 9.55613 3.97C9.13136 4.23511 8.75994 4.76126 8.75994 5.4067V6.87872H2.16341C2.1431 6.87788 2.12276 6.87793 2.10245 6.87889ZM10.7999 5.01602H16.1998C16.3566 5.01602 16.5867 5.06776 16.7109 5.14533C16.7864 5.19244 16.8148 5.21832 16.8307 5.24381C16.845 5.26681 16.8597 5.30739 16.8597 5.4067V6.87872H10.1399V5.4067C10.1399 5.30739 10.1547 5.26681 10.169 5.24381C10.1848 5.21832 10.2132 5.19244 10.2887 5.14533C10.413 5.06776 10.6431 5.01602 10.7999 5.01602ZM2.85009 8.26008H9.40774H24.1496V11.7817C24.0934 11.8318 23.9694 11.9165 23.7862 11.9929C23.4023 12.153 22.8042 12.2855 22.1396 12.2855H15.5398V11.8948C15.5398 10.9229 14.741 10.1228 13.7698 10.1228H13.2298C12.2587 10.1228 11.4599 10.9229 11.4599 11.8948V12.2855H4.86004C4.19548 12.2855 3.59732 12.153 3.21343 11.9929C3.03027 11.9165 2.9063 11.8318 2.85009 11.7817V8.26008ZM13.2298 11.5041H13.7698C13.9953 11.5041 14.1598 11.6686 14.1598 11.8948V14.0575C14.1598 14.2837 13.9953 14.4482 13.7698 14.4482H13.2298C13.0044 14.4482 12.8398 14.2837 12.8398 14.0575V11.8948C12.8398 11.6686 13.0044 11.5041 13.2298 11.5041Z" fill="#404040" stroke="#404040" stroke-width="0.3"/>
</svg>
