<svg width="30" height="31" viewBox="0 0 30 31" fill="none" xmlns="http://www.w3.org/2000/svg">
<path d="M27.3602 17.6792H24.0002V16.8198C24.0002 15.8683 23.2502 15.101 22.3202 15.101H20.3702V5.58617C20.3702 5.4634 20.3102 5.34062 20.2502 5.24854C20.2502 5.21785 16.3502 1.25845 16.3502 1.25845C16.2602 1.16637 16.1402 1.13567 16.0202 1.10498H1.41016C0.990156 1.10498 0.660156 1.4426 0.660156 1.87231V28.7901C0.660156 29.2198 0.990156 29.5575 1.41016 29.5575H27.3602C28.4402 29.5575 29.3402 28.6674 29.3402 27.5317V19.705C29.3402 18.5693 28.4402 17.6792 27.3602 17.6792ZM19.5002 16.0525H22.2902C22.7102 16.0525 23.0402 16.3901 23.0402 16.8198V17.6792H18.7502V16.8198C18.7502 16.4208 19.0802 16.0525 19.5002 16.0525ZM16.4702 2.76241L18.7502 5.09508H16.4702V2.76241ZM12.7802 28.606H1.62016V2.08716H15.5402V5.58617C15.5402 5.86241 15.7502 6.07726 16.0202 6.07726H19.4402V15.101C18.5402 15.1317 17.8202 15.899 17.8202 16.8198V17.6792H14.4602C13.3802 17.6792 12.4802 18.5693 12.4802 19.705V27.5624C12.4802 27.9307 12.6002 28.2683 12.7802 28.606ZM28.3802 27.5317C28.3802 28.1149 27.9302 28.5753 27.3602 28.5753H14.4602C13.8902 28.5753 13.4402 28.1149 13.4402 27.5317V22.8971C13.7402 23.0812 14.1002 23.204 14.4602 23.204H16.5302V23.7565C16.5302 24.0327 16.7402 24.2476 17.0102 24.2476C17.2802 24.2476 17.4902 24.0327 17.4902 23.7565V23.204H24.3602V23.7565C24.3602 24.0327 24.5702 24.2476 24.8402 24.2476C25.1102 24.2476 25.3202 24.0327 25.3202 23.7565V23.204H27.3902C27.7802 23.204 28.1102 23.0812 28.4102 22.8971V27.5317H28.3802ZM28.3802 21.1782C28.3802 21.7614 27.9302 22.2218 27.3602 22.2218H25.2902V21.9763C25.2902 21.7 25.0802 21.4852 24.8102 21.4852C24.5402 21.4852 24.3302 21.7 24.3302 21.9763V22.2218H17.4902V21.9763C17.4902 21.7 17.2802 21.4852 17.0102 21.4852C16.7402 21.4852 16.5302 21.7 16.5302 21.9763V22.2218H14.4602C13.8902 22.2218 13.4402 21.7614 13.4402 21.1782V19.6743C13.4402 19.0911 13.8902 18.6307 14.4602 18.6307H27.3602C27.9302 18.6307 28.3802 19.0911 28.3802 19.6743V21.1782ZM5.19016 10.8961H8.46016C8.73016 10.8961 8.94016 10.6812 8.94016 10.405C8.94016 9.63765 8.55016 8.96241 7.95016 8.5634C8.52016 7.70399 7.86016 6.47627 6.84016 6.50696C5.82016 6.47627 5.16016 7.70399 5.73016 8.5634C5.13016 8.93171 4.74016 9.60696 4.74016 10.405C4.74016 10.6812 4.95016 10.8961 5.19016 10.8961ZM7.20016 7.85746C7.20016 8.34854 6.45016 8.34854 6.45016 7.85746C6.48016 7.36637 7.20016 7.36637 7.20016 7.85746ZM7.92016 9.91389H5.79016C6.15016 8.9931 7.53016 8.9931 7.92016 9.91389ZM6.84016 13.0446C8.97016 13.0446 10.7102 11.2644 10.7102 9.08518C10.5002 3.80597 3.15016 3.80597 2.94016 9.08518C2.97016 11.2644 4.71016 13.0446 6.84016 13.0446ZM6.84016 6.07726C8.46016 6.07726 9.78016 7.42775 9.78016 9.08518C9.63016 13.0753 4.05016 13.0753 3.90016 9.08518C3.90016 7.42775 5.22016 6.07726 6.84016 6.07726ZM12.0002 5.12577H13.9202C14.5502 5.12577 14.5502 6.07726 13.9202 6.07726H12.0002C11.3702 6.07726 11.3702 5.12577 12.0002 5.12577ZM12.0002 8.59409H17.4002C18.0302 8.59409 18.0302 9.54557 17.4002 9.54557H12.0002C11.3702 9.54557 11.3702 8.62478 12.0002 8.59409ZM17.4002 13.0446H12.0002C11.3702 13.0446 11.3702 12.0931 12.0002 12.0931H17.4002C18.0302 12.0931 18.0302 13.0446 17.4002 13.0446ZM15.8102 16.2674H3.66016C3.03016 16.2674 3.06016 15.3159 3.66016 15.3159H15.8102C16.4102 15.3159 16.4102 16.2367 15.8102 16.2674ZM11.1302 19.4594H3.63016C3.00016 19.4594 3.00016 18.508 3.63016 18.508H11.1302C11.7602 18.508 11.7602 19.4594 11.1302 19.4594ZM11.1302 22.6515H3.63016C3.00016 22.6515 3.00016 21.7 3.63016 21.7H11.1302C11.7602 21.7 11.7602 22.6515 11.1302 22.6515ZM11.1302 25.8743H3.63016C3.00016 25.8743 3.00016 24.9228 3.63016 24.9228H11.1302C11.7602 24.9228 11.7602 25.8743 11.1302 25.8743Z" fill="white"/>
</svg>
