<svg width="59" height="59" viewBox="0 0 59 59" fill="none" xmlns="http://www.w3.org/2000/svg">
<g clip-path="url(#clip0_14259_6686)">
<path fill-rule="evenodd" clip-rule="evenodd" d="M26.4309 4.25732C24.2942 4.25732 22.5296 6.02212 22.5296 8.15878V9.59983C21.3937 9.95329 20.2925 10.4089 19.2389 10.9614L18.2218 9.94423C16.7104 8.43286 14.2143 8.43286 12.7029 9.94423L9.94455 12.7026C8.43324 14.2139 8.43324 16.7101 9.94455 18.2214L10.9618 19.2386C10.4093 20.2922 9.95373 21.3932 9.60016 22.5291H8.15911C6.02245 22.5291 4.25781 24.2939 4.25781 26.4305V30.3346C4.25781 32.4712 6.02245 34.236 8.15911 34.236H9.60016C9.95362 35.3718 10.4093 36.4729 10.9618 37.5265L9.94455 38.5437C8.43324 40.055 8.43324 42.5513 9.94455 44.0626L12.7029 46.8208C14.2143 48.3322 16.7104 48.3322 18.2218 46.8208L19.2389 45.8037C20.2925 46.3561 21.3937 46.8118 22.5296 47.1653V48.6063C22.5296 50.7429 24.2942 52.5077 26.4309 52.5077H30.335C32.4717 52.5077 34.2363 50.7429 34.2363 48.6063V47.1653C35.3722 46.8119 36.4733 46.3561 37.5268 45.8037L38.544 46.8208C40.0554 48.3322 42.5516 48.3322 44.063 46.8208L46.8212 44.0626C48.3326 42.5513 48.3326 40.055 46.8212 38.5437L45.8041 37.5265C46.3565 36.4729 46.8122 35.3718 47.1657 34.236H48.6068C50.7434 34.236 52.5081 32.4712 52.5081 30.3346V26.4305C52.5081 24.2939 50.7434 22.5291 48.6068 22.5291H47.1741C46.8196 21.3915 46.3628 20.2888 45.8088 19.2338L46.8212 18.2214C48.3326 16.71 48.3326 14.2139 46.8212 12.7026L44.063 9.94423C42.5516 8.43286 40.0554 8.43286 38.544 9.94423L37.5317 10.9566C36.4767 10.4027 35.374 9.94578 34.2363 9.5913V8.15878C34.2363 6.02212 32.4717 4.25732 30.335 4.25732H26.4309ZM26.4309 7.09565H30.335C30.9502 7.09565 31.3981 7.54352 31.3981 8.15878V10.6629C31.3982 10.9793 31.5039 11.2866 31.6986 11.536C31.8932 11.7854 32.1657 11.9627 32.4726 12.0395C34.0825 12.4423 35.6241 13.0813 37.0474 13.9349C37.3188 14.0977 37.6367 14.1651 37.9508 14.1264C38.2649 14.0877 38.557 13.9452 38.7808 13.7215L40.551 11.9512C40.9855 11.5168 41.6215 11.5168 42.056 11.9512L44.8143 14.7095C45.2488 15.144 45.2488 15.7801 44.8143 16.2146L43.0441 17.9847C42.8204 18.2085 42.6779 18.5007 42.6392 18.8147C42.6005 19.1288 42.6679 19.4467 42.8307 19.7181C43.6843 21.1414 44.323 22.683 44.726 24.2929C44.8029 24.5999 44.9801 24.8723 45.2295 25.067C45.4789 25.2617 45.7862 25.3674 46.1026 25.3675H48.6068C49.2219 25.3675 49.67 25.8153 49.67 26.4305V30.3346C49.67 30.9497 49.2221 31.3978 48.6068 31.3978H46.0939C45.7774 31.3978 45.47 31.5036 45.2205 31.6983C44.9711 31.8931 44.7939 32.1657 44.7171 32.4727C44.3148 34.081 43.6776 35.6212 42.8257 37.0435C42.6632 37.3148 42.596 37.6327 42.6348 37.9466C42.6736 38.2605 42.8161 38.5525 43.0397 38.7761L44.8143 40.5507C45.2488 40.9852 45.2488 41.6213 44.8143 42.0557L42.056 44.814C41.6215 45.2485 40.9854 45.2485 40.551 44.814L38.7764 43.0394C38.5527 42.8158 38.2608 42.6733 37.9469 42.6345C37.633 42.5957 37.3151 42.6629 37.0437 42.8254C35.6215 43.6773 34.0813 44.3146 32.473 44.7168C32.166 44.7936 31.8934 44.9708 31.6987 45.2202C31.5039 45.4697 31.3982 45.7771 31.3981 46.0935V48.6064C31.3981 49.2215 30.9503 49.6695 30.335 49.6695H26.4309C25.8158 49.6695 25.3677 49.2216 25.3677 48.6064V46.0935C25.3677 45.7771 25.2619 45.4697 25.0672 45.2202C24.8724 44.9708 24.5999 44.7936 24.2929 44.7168C22.6846 44.3145 21.1444 43.6773 19.7221 42.8254C19.4508 42.6629 19.1329 42.5957 18.819 42.6345C18.5051 42.6733 18.2131 42.8158 17.9895 43.0394L16.2149 44.814C15.7804 45.2485 15.1443 45.2485 14.7098 44.814L11.9516 42.0557C11.5171 41.6212 11.5171 40.9851 11.9516 40.5507L13.7262 38.7761C13.9498 38.5525 14.0923 38.2605 14.1311 37.9466C14.1699 37.6327 14.1027 37.3148 13.9402 37.0435C13.0883 35.6212 12.451 34.081 12.0489 32.4727C11.9721 32.1657 11.7949 31.8931 11.5455 31.6983C11.296 31.5036 10.9887 31.3978 10.6722 31.3978H8.15921C7.54411 31.3978 7.09614 30.9499 7.09614 30.3346V26.4305C7.09614 25.8154 7.54401 25.3675 8.15921 25.3675H10.6722C10.9887 25.3674 11.296 25.2616 11.5455 25.0669C11.7949 24.8721 11.9721 24.5996 12.0489 24.2925C12.4512 22.6842 13.0883 21.1441 13.9402 19.7219C14.1027 19.4505 14.1699 19.1326 14.1311 18.8187C14.0924 18.5048 13.9498 18.2128 13.7262 17.9891L11.9516 16.2146C11.5171 15.7801 11.5171 15.144 11.9516 14.7095L14.7098 11.9512C15.1443 11.5168 15.7804 11.5168 16.2149 11.9512L17.9895 13.7259C18.2131 13.9495 18.5051 14.092 18.819 14.1308C19.1329 14.1696 19.4508 14.1024 19.7221 13.9399C21.1444 13.088 22.6846 12.4507 24.2929 12.0485C24.5999 11.9717 24.8724 11.7945 25.0672 11.5451C25.2619 11.2956 25.3677 10.9883 25.3677 10.6718V8.15889C25.3677 7.54373 25.8156 7.09565 26.4309 7.09565ZM28.3829 16.2388C21.693 16.2388 16.2392 21.6926 16.2392 28.3826C16.2392 35.0726 21.693 40.5263 28.3829 40.5263C35.0729 40.5263 40.5267 35.0726 40.5267 28.3826C40.5267 21.6926 35.0729 16.2388 28.3829 16.2388ZM28.3829 19.0771C33.539 19.0771 37.6885 23.2265 37.6885 28.3826C37.6885 33.5387 33.539 37.688 28.3829 37.688C23.2268 37.688 19.0774 33.5387 19.0774 28.3826C19.0774 23.2265 23.2268 19.0771 28.3829 19.0771Z" fill="white"/>
</g>
<defs>
<clipPath id="clip0_14259_6686">
<rect width="59" height="59" fill="white"/>
</clipPath>
</defs>
</svg>
