<svg width="51" height="47" viewBox="0 0 51 47" fill="none" xmlns="http://www.w3.org/2000/svg">
<path d="M37.2713 35.9569L37.2712 35.9568L34.8118 34.0039C34.5804 33.8207 34.4089 33.5536 34.4089 33.2322V29.1427C34.4089 28.6199 34.8354 28.1963 35.361 28.1982M37.2713 35.9569L35.3608 28.2482M37.2713 35.9569C37.4469 36.0954 37.6552 36.1639 37.8637 36.1639C38.1425 36.1639 38.4197 36.0424 38.6088 35.8088L38.609 35.8085C38.9361 35.3999 38.869 34.805 38.458 34.4782L38.458 34.4781L36.3127 32.776M37.2713 35.9569L36.2627 32.8002M35.361 28.1982L35.3608 28.2482M35.361 28.1982C35.3609 28.1982 35.3608 28.1982 35.3608 28.1982V28.2482M35.361 28.1982C35.8861 28.1983 36.3127 28.6197 36.3127 29.1427V32.776M35.3608 28.2482C35.8588 28.2482 36.2627 28.6477 36.2627 29.1427V32.8002M36.3127 32.776L36.2937 32.761L36.2627 32.8002M36.3127 32.776V32.8002H36.2627M9.60512 9.32743L9.60562 9.32742L12.8935 9.32565V6.21672C12.8935 5.69596 13.3179 5.2703 13.8418 5.27215M9.60512 9.32743L13.8418 5.32215M9.60512 9.32743C8.21982 9.34211 7.09996 10.4583 7.09258 11.8377V11.8379L7.09258 39.2113L7.09258 39.2115C7.09997 40.5909 8.21982 41.7071 9.60505 41.7236H9.60565H27.8377C28.363 41.7236 28.7896 41.3001 28.7896 40.7773C28.7896 40.2544 28.363 39.8309 27.8377 39.8309L9.61538 39.8327C9.27109 39.8206 8.99617 39.5384 8.99617 39.1951L8.99436 29.321L8.99311 22.5343L8.9927 20.2979L8.99259 19.6713L8.99256 19.5062L8.99256 19.4996L41.999 19.4978L42.0008 25.7532C42.0008 26.276 42.4273 26.6995 42.9527 26.6995C43.4763 26.6995 43.9028 26.276 43.9028 25.7531L43.9046 11.8379V11.8377C43.8972 10.4583 42.7774 9.34213 41.3921 9.32558H41.3915H38.5148V6.21668C38.5148 5.69393 38.0902 5.27031 37.5647 5.2703L37.5634 5.27033L37.5632 5.27036C37.563 5.27035 37.5627 5.27035 37.5625 5.27035C37.037 5.26886 36.613 5.69438 36.613 6.21672V9.32563H14.7955M9.60512 9.32743L14.7955 9.37563V9.32563M13.8418 5.27215C13.8419 5.27215 13.8419 5.27215 13.8419 5.27215L13.8418 5.32215M13.8418 5.27215H13.8418V5.32215M13.8418 5.27215H13.8436C14.3688 5.27215 14.7955 5.69371 14.7955 6.21672V9.32563M13.8418 5.32215H13.8436C14.3416 5.32215 14.7455 5.72174 14.7455 6.21672V9.32563H14.7955M17.3606 13.5109L17.3731 13.5109L33.6348 13.5091C34.1602 13.5091 34.5849 13.9308 34.5849 14.4537C34.5849 14.9765 34.1584 15.4 33.633 15.4H17.364C16.8387 15.4 16.4121 14.9765 16.4121 14.4537C16.4121 13.9328 16.8366 13.5091 17.3604 13.5109C17.3605 13.5109 17.3605 13.5109 17.3606 13.5109ZM17.3606 13.5109L17.3604 13.5609L17.3606 13.5109ZM8.99626 17.5754V11.855C8.99626 11.5097 9.26779 11.2295 9.61179 11.2174L41.3813 11.2206C41.3815 11.2206 41.3817 11.2206 41.3819 11.2206C41.726 11.2292 42.0026 11.5096 42.0026 11.8546V11.8548V11.8557L42.0026 11.8589L42.0026 11.8714L42.0025 11.9199L42.0024 12.1034L42.002 12.7575L42.0008 14.7404L41.9995 16.7226L41.9991 17.3758L41.999 17.5588L41.999 17.5736C28.705 17.5745 20.4438 17.5749 15.5051 17.5751L10.3714 17.5753L9.27571 17.5754L9.02527 17.5754H8.99626ZM35.3608 26.6314C39.0299 26.6296 42.0029 29.5864 42.0029 33.2324C42.0029 36.8763 39.0283 39.8315 35.3608 39.8315C31.6917 39.8315 28.7187 36.8765 28.7187 33.2324C28.7187 29.5866 31.6915 26.6314 35.3608 26.6314ZM35.3608 24.7385C30.641 24.7385 26.817 28.5405 26.817 33.2319C26.817 37.9216 30.6429 41.7235 35.3608 41.7235C40.0787 41.7235 43.9046 37.9215 43.9046 33.2319C43.9046 28.5404 40.0787 24.7385 35.3608 24.7385Z" fill="white" stroke="white" stroke-width="0.1"/>
</svg>
