<svg width="43" height="39" viewBox="0 0 43 39" fill="none" xmlns="http://www.w3.org/2000/svg">
<path d="M34.3151 9.66867L35.6954 8.35708L36.6483 9.26243C37.1247 9.71513 37.8943 9.71513 38.3707 9.26243C38.615 9.03029 38.725 8.74013 38.725 8.43831C38.725 8.13649 38.6028 7.84633 38.3707 7.61418L34.7792 4.20168C34.3028 3.74899 33.5332 3.74899 33.0568 4.20168C32.5804 4.65438 32.5804 5.38561 33.0568 5.83827L33.973 6.70883L32.5926 8.02041C29.612 5.57129 25.7517 4.07399 21.5127 4.07399C17.2737 4.07399 13.4135 5.57129 10.4328 8.02041L9.05241 6.70883L9.98082 5.82668C10.4573 5.37399 10.4573 4.64275 9.98082 4.19009C9.50438 3.73743 8.7348 3.7374 8.25839 4.19009L4.64249 7.62581C4.16605 8.07851 4.16605 8.80974 4.64249 9.2624C5.11893 9.71506 5.88851 9.71509 6.36491 9.2624L7.31775 8.35704L8.69813 9.66863C6.12055 12.4892 4.54472 16.1686 4.54472 20.1964C4.54472 24.2242 6.12055 27.892 8.69813 30.7242L6.70692 32.6162C6.23048 33.0688 6.23048 33.8001 6.70692 34.2527C6.95123 34.4849 7.25661 34.5893 7.57427 34.5893C7.89192 34.5893 8.1973 34.4733 8.44161 34.2527L10.4328 32.3608C13.4013 34.8099 17.2737 36.3072 21.5128 36.3072C25.7518 36.3072 29.612 34.8099 32.5927 32.3608L34.5839 34.2527C34.8282 34.4849 35.1336 34.5893 35.4512 34.5893C35.7689 34.5893 36.0743 34.4733 36.3186 34.2527C36.795 33.8 36.795 33.0688 36.3186 32.6162L34.3274 30.7242C36.905 27.892 38.4808 24.2242 38.4808 20.1964C38.4808 16.1686 36.905 12.5008 34.3274 9.66863L34.3151 9.66867ZM6.98818 20.1964C6.98818 12.5937 13.4992 6.40715 21.5007 6.40715C29.5022 6.40715 36.0132 12.5937 36.0132 20.1964C36.0132 27.7992 29.5022 33.9857 21.5007 33.9857C13.4992 33.9857 6.98818 27.7992 6.98818 20.1964ZM26.2037 23.017C26.6801 23.4697 26.6801 24.2009 26.2037 24.6536C25.9594 24.8857 25.654 24.9902 25.3364 24.9902C25.0187 24.9902 24.7133 24.8741 24.469 24.6536L20.6332 21.0089C20.4011 20.7884 20.2789 20.4982 20.2789 20.1848V12.3618C20.2789 11.7234 20.8286 11.2011 21.5005 11.2011C22.1724 11.2011 22.7221 11.7234 22.7221 12.3618V19.709L26.2037 23.017Z" fill="white"/>
</svg>
