<svg width="44" height="47" viewBox="0 0 44 47" fill="none" xmlns="http://www.w3.org/2000/svg">
<path d="M15.6265 1.11914H4.39961C2.57988 1.11914 1.09961 2.62505 1.09961 4.47628V15.8976C1.09961 17.7488 2.57988 19.2547 4.39961 19.2547H15.6265C17.4462 19.2547 18.9265 17.7488 18.9265 15.8976V4.47628C18.9265 2.62505 17.4462 1.11914 15.6265 1.11914ZM16.7265 15.8976C16.7265 16.5146 16.233 17.0166 15.6265 17.0166H4.39961C3.79311 17.0166 3.29961 16.5146 3.29961 15.8976V4.47628C3.29961 3.85928 3.79311 3.35724 4.39961 3.35724H15.6265C16.233 3.35724 16.7265 3.85928 16.7265 4.47628V15.8976Z" fill="white"/>
<path d="M39.5991 1.11914H28.3723C26.5525 1.11914 25.0723 2.62505 25.0723 4.47628L25.0725 15.8976C25.0725 17.7486 26.5528 19.2545 28.3725 19.2545H39.5991C41.4189 19.2545 42.8991 17.7486 42.8991 15.8973V4.47628C42.8991 2.62505 41.4189 1.11914 39.5991 1.11914ZM40.6991 15.8973C40.6991 16.5143 40.2056 17.0164 39.5991 17.0164H28.3725C27.766 17.0164 27.2725 16.5146 27.2725 15.8976L27.2723 4.47628C27.2723 3.85928 27.7658 3.35724 28.3723 3.35724H39.5991C40.2056 3.35724 40.6991 3.85928 40.6991 4.47628V15.8973Z" fill="white"/>
<path d="M15.6265 25.5066L4.39982 25.5063C2.5801 25.5063 1.09982 27.0123 1.09982 28.8635L1.09961 40.2848C1.09961 42.136 2.57988 43.6419 4.39961 43.6419H15.6263C17.446 43.6419 18.9263 42.136 18.9263 40.285L18.9265 28.8637C18.9265 27.0125 17.4462 25.5066 15.6265 25.5066ZM16.7263 40.285C16.7263 40.902 16.2328 41.4038 15.6263 41.4038H4.39961C3.79311 41.4038 3.29961 40.9018 3.29961 40.2848L3.29982 28.8635C3.29982 28.2465 3.79332 27.7444 4.39982 27.7444L15.6265 27.7447C16.233 27.7447 16.7265 28.2467 16.7265 28.8637L16.7263 40.285Z" fill="white"/>
<path d="M39.5994 25.5071L28.3725 25.5068C26.5528 25.5068 25.0725 27.0127 25.0725 28.864L25.0723 40.285C25.0723 42.1363 26.5525 43.6422 28.3723 43.6422L39.5989 43.6424C41.4186 43.6424 42.8991 42.1365 42.8991 40.2855L42.8993 28.8642C42.8993 27.013 41.4191 25.5071 39.5994 25.5071ZM40.6991 40.2855C40.6991 40.9025 40.2056 41.4043 39.5989 41.4043L28.3723 41.4041C27.7658 41.4041 27.2723 40.902 27.2723 40.285L27.2725 28.864C27.2725 28.247 27.766 27.7449 28.3725 27.7449L39.5994 27.7451C40.2059 27.7451 40.6994 28.2472 40.6994 28.8642L40.6991 40.2855Z" fill="white"/>
</svg>
