<svg width="110" height="102" viewBox="0 0 110 102" fill="none" xmlns="http://www.w3.org/2000/svg">
<path d="M84.168 55.73H67.5C66.6367 55.73 65.9375 56.4292 65.9375 57.2925C65.9375 58.1558 66.6367 58.855 67.5 58.855H84.168C85.0313 58.855 85.7305 58.1558 85.7305 57.2925C85.7305 56.4292 85.0313 55.73 84.168 55.73Z" fill="white"/>
<path d="M84.168 41.145H67.5C66.6367 41.145 65.9375 41.8442 65.9375 42.7075C65.9375 43.5708 66.6367 44.27 67.5 44.27H84.168C85.0313 44.27 85.7305 43.5708 85.7305 42.7075C85.7305 41.8442 85.0313 41.145 84.168 41.145Z" fill="white"/>
<path d="M67.5 66.145H75.832C76.6953 66.145 77.3945 65.4458 77.3945 64.5825C77.3945 63.7192 76.6953 63.02 75.832 63.02H67.5C66.6367 63.02 65.9375 63.7192 65.9375 64.5825C65.9375 65.4458 66.6367 66.145 67.5 66.145Z" fill="white"/>
<path d="M67.5 51.562H75.832C76.6953 51.562 77.3945 50.8628 77.3945 49.9995C77.3945 49.1362 76.6953 48.437 75.832 48.437H67.5C66.6367 48.437 65.9375 49.1362 65.9375 49.9995C65.9375 50.8628 66.6367 51.562 67.5 51.562Z" fill="white"/>
<path d="M58.582 57.4379L53.8554 62.1645L52.4609 60.77H52.457C51.8476 60.1645 50.8593 60.1645 50.25 60.7739C49.6406 61.3833 49.6406 62.3716 50.25 62.9809L52.75 65.4809C53.043 65.7739 53.4414 65.9379 53.8555 65.9379C54.2696 65.9379 54.668 65.7739 54.961 65.4809L60.793 59.6489C61.3985 59.0356 61.3985 58.0473 60.7891 57.438C60.1797 56.8286 59.1913 56.8285 58.582 57.4379Z" fill="white"/>
<path d="M84.168 70.312H67.5C66.6367 70.312 65.9375 71.0112 65.9375 71.8745C65.9375 72.7378 66.6367 73.437 67.5 73.437H84.168C85.0313 73.437 85.7305 72.7378 85.7305 71.8745C85.7305 71.0112 85.0313 70.312 84.168 70.312Z" fill="white"/>
<path d="M75.832 77.605H67.5C66.6367 77.605 65.9375 78.3042 65.9375 79.1675C65.9375 80.0308 66.6367 80.73 67.5 80.73H75.832C76.6953 80.73 77.3945 80.0308 77.3945 79.1675C77.3945 78.3042 76.6953 77.605 75.832 77.605Z" fill="white"/>
<path d="M58.5821 72.02L53.8555 76.7505L52.461 75.356H52.4571C52.168 75.0591 51.7696 74.8951 51.3555 74.8951C50.9375 74.8951 50.5391 75.0591 50.2461 75.3521C49.9531 75.6451 49.7891 76.0435 49.7891 76.4576C49.7891 76.8716 49.957 77.2701 50.25 77.5631L52.75 80.0631C53.043 80.3561 53.4414 80.5201 53.8555 80.5201C54.2696 80.5201 54.668 80.3561 54.961 80.0631L60.793 74.2311C61.086 73.9381 61.25 73.5397 61.2539 73.1256C61.2539 72.7115 61.086 72.3131 60.793 72.0201C60.5 71.7271 60.1016 71.5591 59.6875 71.5631C59.2734 71.5631 58.8751 71.727 58.5821 72.02Z" fill="white"/>
<path d="M58.582 42.8549L53.8554 47.5815L52.4609 46.187H52.457C51.8476 45.5776 50.8593 45.5815 50.25 46.1909C49.6406 46.7964 49.6406 47.7847 50.25 48.3979L52.75 50.8979V50.894C53.043 51.187 53.4414 51.3549 53.8555 51.3549C54.2696 51.3549 54.668 51.187 54.961 50.894L60.793 45.062C61.3985 44.4526 61.3985 43.4643 60.7891 42.855C60.1797 42.2456 59.1913 42.2455 58.582 42.8549Z" fill="white"/>
<path d="M13.332 49.48C14.1953 49.48 14.8945 48.7808 14.8945 47.9175V29.1675C14.8945 28.8784 15.1289 28.644 15.4179 28.644H20.1054V81.249C20.1054 81.6162 20.2304 81.9678 20.4648 82.249L25.6718 88.499H25.6757C25.9726 88.8545 26.4101 89.0615 26.8749 89.0615C27.3397 89.0615 27.7772 88.8545 28.0741 88.499L33.2811 82.249H33.285C33.5194 81.9678 33.6444 81.6162 33.6444 81.249V33.331C33.6444 32.4678 32.9452 31.7685 32.0819 31.7685C31.2186 31.7685 30.5194 32.4678 30.5194 33.331V52.655C30.3475 52.6238 30.1756 52.6082 29.9999 52.6003H23.7499C23.5741 52.6082 23.4022 52.6238 23.2303 52.655V28.643H32.0819C32.9452 28.643 33.6444 27.9438 33.6444 27.0805V20.8305C33.6444 18.8188 32.0116 17.186 29.9999 17.186H23.7499C21.7382 17.186 20.1054 18.8188 20.1054 20.8305V25.518H15.4179C13.4023 25.5219 11.7734 27.1508 11.7695 29.1664V47.9164C11.7695 48.7797 12.4688 49.4789 13.332 49.4789L13.332 49.48ZM30.52 75.523L23.2309 75.5191V64.0071C23.4028 64.0383 23.5746 64.0539 23.7504 64.0618H30.0004C30.1762 64.0539 30.3481 64.0383 30.5199 64.0071L30.52 75.523ZM26.8755 85.0582L23.231 80.6832V78.6441H30.524V80.6832L26.8755 85.0582ZM23.7505 55.7262H30.0005C30.2895 55.7301 30.52 55.9606 30.52 56.2496V60.4176V60.4137C30.52 60.7028 30.2895 60.9371 30.0005 60.9371H23.7505C23.4614 60.9371 23.2309 60.7028 23.2309 60.4137V56.2457V56.2496C23.2309 55.9606 23.4614 55.7301 23.7505 55.7262ZM23.2309 20.8312C23.2309 20.5421 23.4614 20.3116 23.7505 20.3116H30.0005C30.2895 20.3116 30.52 20.5421 30.52 20.8312V25.5187H23.2309L23.2309 20.8312Z" fill="white"/>
<path d="M40.418 89.062H96.668C97.5312 89.062 98.2305 88.3628 98.2305 87.4995V12.4995C98.2305 11.6362 97.5312 10.937 96.668 10.937H40.418C39.5547 10.937 38.8555 11.6362 38.8555 12.4995V87.4995C38.8555 88.3628 39.5547 89.062 40.418 89.062ZM41.9805 14.062H95.1055V85.937H41.9805V14.062Z" fill="white"/>
<path d="M88.332 18.2299H48.75C47.8867 18.2299 47.1875 18.9291 47.1875 19.7924V36.4604V36.4565C47.1875 37.3198 47.8867 38.019 48.75 38.019C49.6133 38.019 50.3125 37.3198 50.3125 36.4565V21.3545H86.7695V32.8115H54.9995C54.1362 32.8115 53.437 33.5107 53.437 34.374C53.437 35.2373 54.1362 35.9365 54.9995 35.9365H88.3315C89.1948 35.9365 89.894 35.2373 89.894 34.374V19.792C89.894 18.9287 89.1953 18.2299 88.332 18.2299Z" fill="white"/>
</svg>
