<svg width="52" height="55" viewBox="0 0 52 55" fill="none" xmlns="http://www.w3.org/2000/svg">
<path d="M25.998 4.58351C23.5494 4.58351 21.3372 5.78664 19.463 7.51969C17.5869 9.25274 15.9748 11.5534 14.6284 14.078C11.9361 19.127 10.2871 25.0115 10.2871 29.2121C10.2871 37.1541 16.5933 43.6996 24.6037 44.3871V49.0745H24.6018C24.6037 49.4326 24.7514 49.7745 25.0136 50.0269C25.2758 50.2776 25.6304 50.419 25.9978 50.4172C26.7623 50.4155 27.3828 49.8157 27.3865 49.0745V44.3871C35.4025 43.7032 41.7143 37.156 41.7143 29.2121C41.7143 25.0137 40.0543 19.127 37.3619 14.078C36.0139 11.5536 34.4019 9.25309 32.5274 7.51967C30.6512 5.78662 28.4482 4.58351 25.998 4.58351ZM25.998 7.2798C27.5048 7.2798 29.0541 8.0371 30.6071 9.47118C32.1582 10.9053 33.6411 12.9857 34.8875 15.3223C37.3785 19.995 38.9334 25.742 38.9334 29.2139C38.9334 35.7002 33.8903 41.0123 27.3866 41.6801V35.147L33.1222 31.1026C33.7408 30.6657 33.8793 29.8243 33.4305 29.2227C33.2126 28.9327 32.8821 28.7393 32.5165 28.6856C32.1545 28.6319 31.7852 28.7178 31.4897 28.9255L27.3866 31.8187V21.739C27.3829 20.9978 26.7625 20.398 25.998 20.3963C25.6305 20.3963 25.276 20.5359 25.0138 20.7884C24.7515 21.039 24.6038 21.3828 24.602 21.739V31.81L20.5062 28.9239L20.5081 28.9257C20.2089 28.7126 19.8341 28.6249 19.4684 28.6804C19.1028 28.7359 18.7741 28.9311 18.5581 29.2229C18.1093 29.8245 18.2478 30.6659 18.8664 31.1028L24.602 35.1472V41.6803C18.102 41.0089 13.0552 35.6968 13.0552 29.2141C13.0552 25.7426 14.6101 19.9956 17.1011 15.3225C18.3475 12.986 19.8285 10.9057 21.3815 9.47139C22.9326 8.03731 24.4912 7.2798 25.998 7.2798Z" fill="white"/>
</svg>
