<svg width="26" height="26" viewBox="0 0 26 26" fill="none" xmlns="http://www.w3.org/2000/svg">
<path d="M19.6574 5.48207C19.9602 5.76096 20.247 6.04781 20.5179 6.34263L23.7809 6.80876C24.3125 7.73208 24.7223 8.72039 25 9.749L23.0159 12.3904C23.0159 12.3904 23.0518 13.2032 23.0159 13.6096L25 16.251C24.7236 17.2801 24.3138 18.2685 23.7809 19.1912L20.5179 19.6574C20.5179 19.6574 19.9562 20.243 19.6574 20.5179L19.1912 23.7809C18.2679 24.3125 17.2796 24.7223 16.251 25L13.6096 23.0159C13.204 23.0518 12.796 23.0518 12.3904 23.0159L9.749 25C8.71995 24.7236 7.73148 24.3138 6.80876 23.7809L6.34263 20.5179C6.04781 20.239 5.76096 19.9522 5.48207 19.6574L2.21912 19.1912C1.68747 18.2679 1.27768 17.2796 1 16.251L2.98406 13.6096C2.98406 13.6096 2.94821 12.7968 2.98406 12.3904L1 9.749C1.2764 8.71995 1.68625 7.73148 2.21912 6.80876L5.48207 6.34263C5.76096 6.04781 6.04781 5.76096 6.34263 5.48207L6.80876 2.21912C7.73208 1.68747 8.72039 1.27768 9.749 1L12.3904 2.98406C12.796 2.9482 13.204 2.9482 13.6096 2.98406L16.251 1C17.2801 1.2764 18.2685 1.68625 19.1912 2.21912L19.6574 5.48207Z" stroke="#424242" stroke-width="2" stroke-linecap="round" stroke-linejoin="round"/>
<path d="M12.9997 18.7368C16.1682 18.7368 18.7368 16.1682 18.7368 12.9997C18.7368 9.83126 16.1682 7.2627 12.9997 7.2627C9.83126 7.2627 7.2627 9.83126 7.2627 12.9997C7.2627 16.1682 9.83126 18.7368 12.9997 18.7368Z" stroke="#424242" stroke-width="2" stroke-linecap="round" stroke-linejoin="round"/>
</svg>
