<svg width="32" height="31" viewBox="0 0 32 31" fill="none" xmlns="http://www.w3.org/2000/svg">
<g clip-path="url(#clip0_14259_6883)">
<path fill-rule="evenodd" clip-rule="evenodd" d="M14 15C16.7614 15 19 12.7614 19 10C19 7.23858 16.7614 5 14 5C11.2386 5 9 7.23858 9 10C9 12.7614 11.2386 15 14 15ZM14 13C15.6569 13 17 11.6569 17 10C17 8.34315 15.6569 7 14 7C12.3431 7 11 8.34315 11 10C11 11.6569 12.3431 13 14 13Z" fill="#303030"/>
<path d="M18.5914 23.3914C17.9052 23.7789 17.1126 24 16.2683 24H11.7317C9.34549 24 7.37184 22.2337 7.04691 19.9372C8.23193 19.5391 10.4844 19 14 19C14.6238 19 15.2079 19.017 15.7533 19.0471C15.8106 18.3657 16.0999 17.7001 16.6213 17.1787L16.6927 17.1073C15.8807 17.0399 14.9843 17 14 17C9.34197 17 6.65194 17.8945 5.56615 18.3608C5.20566 18.5156 5 18.876 5 19.2683C5 22.9861 8.01388 26 11.7317 26H16.2683C17.7027 26 19.0322 25.5514 20.1244 24.7868C19.9077 24.66 19.7036 24.5036 19.5178 24.3178L18.5914 23.3914Z" fill="#303030"/>
<path d="M19.0001 18.0859L17.5859 19.5001L21.2501 23.1643L27.1643 17.2501L25.7501 15.8359L21.2501 20.3359L19.0001 18.0859Z" fill="#303030"/>
</g>
<defs>
<clipPath id="clip0_14259_6883">
<rect width="32" height="31" fill="white"/>
</clipPath>
</defs>
</svg>
