<svg width="100" height="100" viewBox="0 0 100 100" fill="none" xmlns="http://www.w3.org/2000/svg">
<mask id="path-1-inside-1_10948_1859" fill="white">
<path d="M34.7853 82.4054C34.4385 83.1707 34.7769 84.0754 35.5557 84.3909C43.4739 87.5983 52.2672 88.0111 60.4746 85.5326C69.1685 82.9072 76.6142 77.216 81.4292 69.5158C86.2442 61.8157 88.1013 52.6299 86.6555 43.6641C85.2098 34.6982 80.5596 26.5617 73.5683 20.7653C66.577 14.9689 57.7198 11.9065 48.6413 12.1469C39.5629 12.3872 30.8801 15.9139 24.2053 22.0721C17.5305 28.2303 13.3173 36.6015 12.348 45.6312C11.4329 54.1558 13.4676 62.7204 18.0864 69.9073C18.5407 70.6141 19.4924 70.7791 20.1803 70.2965C20.8682 69.8139 21.0315 68.8668 20.5798 68.1583C16.3827 61.576 14.5371 53.7478 15.3735 45.956C16.2642 37.659 20.1355 29.967 26.2687 24.3086C32.4019 18.6501 40.3801 15.4096 48.7219 15.1887C57.0637 14.9679 65.2022 17.7817 71.6261 23.1078C78.0501 28.4338 82.323 35.9102 83.6514 44.1485C84.9798 52.3868 83.2735 60.8272 78.8492 67.9025C74.4249 74.9778 67.5834 80.2072 59.595 82.6196C52.093 84.885 44.0584 84.5216 36.8125 81.6167C36.0326 81.304 35.1321 81.64 34.7853 82.4054Z"/>
</mask>
<path d="M34.7853 82.4054C34.4385 83.1707 34.7769 84.0754 35.5557 84.3909C43.4739 87.5983 52.2672 88.0111 60.4746 85.5326C69.1685 82.9072 76.6142 77.216 81.4292 69.5158C86.2442 61.8157 88.1013 52.6299 86.6555 43.6641C85.2098 34.6982 80.5596 26.5617 73.5683 20.7653C66.577 14.9689 57.7198 11.9065 48.6413 12.1469C39.5629 12.3872 30.8801 15.9139 24.2053 22.0721C17.5305 28.2303 13.3173 36.6015 12.348 45.6312C11.4329 54.1558 13.4676 62.7204 18.0864 69.9073C18.5407 70.6141 19.4924 70.7791 20.1803 70.2965C20.8682 69.8139 21.0315 68.8668 20.5798 68.1583C16.3827 61.576 14.5371 53.7478 15.3735 45.956C16.2642 37.659 20.1355 29.967 26.2687 24.3086C32.4019 18.6501 40.3801 15.4096 48.7219 15.1887C57.0637 14.9679 65.2022 17.7817 71.6261 23.1078C78.0501 28.4338 82.323 35.9102 83.6514 44.1485C84.9798 52.3868 83.2735 60.8272 78.8492 67.9025C74.4249 74.9778 67.5834 80.2072 59.595 82.6196C52.093 84.885 44.0584 84.5216 36.8125 81.6167C36.0326 81.304 35.1321 81.64 34.7853 82.4054Z" stroke="#2F91DE" stroke-width="6" mask="url(#path-1-inside-1_10948_1859)"/>
<path d="M34.1338 77.6338L22.1338 77.6338M28.1338 71.1338V84.1338" stroke="#2F91DE" stroke-width="2.5" stroke-linecap="round"/>
<path d="M28.684 68.3558L28.6825 68.3554C28.4637 68.2986 28.2748 68.1591 28.1593 67.965C28.0436 67.7706 28.0117 67.5386 28.0716 67.3205L28.0717 67.3202C28.8191 64.6106 30.686 62.9183 32.7383 61.8182C34.7826 60.7224 37.0315 60.203 38.5812 59.8451L38.5879 59.8436L38.5879 59.8435C39.2801 59.6839 39.8384 59.5528 40.1074 59.4389L40.1078 59.4388C42.2742 58.5252 43.5957 57.1606 44.0964 55.3872C42.2985 53.7487 40.7952 51.4533 39.8146 48.8554C38.3817 47.2998 37.5324 45.5767 37.5324 44.0951C37.5324 43.0857 37.9252 42.268 38.6948 41.678C39.1811 35.0849 44.1556 29.9187 50.2283 29.8872L50.2328 29.8872L50.2328 29.8872L50.4149 29.8896L50.4151 29.8896C56.6053 29.9756 61.5631 35.2927 61.9014 42.0123C62.4296 42.5702 62.6932 43.2738 62.6932 44.0939C62.6932 45.3513 62.0801 46.7852 61.0056 48.1533C60.0012 51.1616 58.2664 53.8574 56.1787 55.6462C56.6827 57.4102 58.0025 58.7684 60.162 59.6799L60.1629 59.6803C60.2918 59.7353 60.5028 59.7956 60.784 59.8628C61.0556 59.9278 61.3772 59.9956 61.7273 60.0695L61.7491 60.0741L61.7493 60.0741L61.7579 60.0759C63.2957 60.3994 65.5287 60.8691 67.5589 61.919C69.5987 62.9739 71.4544 64.6253 72.1967 67.3176L28.684 68.3558ZM28.684 68.3558C28.9023 68.4111 29.1344 68.3807 29.3307 68.2704C29.5271 68.16 29.6729 67.9776 29.734 67.7608L29.7343 67.7596M28.684 68.3558L29.7343 67.7596M29.7343 67.7596C30.3394 65.566 31.8709 64.1761 33.6514 63.2415C35.4373 62.3041 37.4499 61.8374 38.9828 61.4826L38.9967 61.4794C39.7468 61.3062 40.3724 61.1617 40.788 60.9874L40.7885 60.9872M29.7343 67.7596L40.7885 60.9872M40.7885 60.9872C44.3576 59.4821 45.5414 57.0443 45.8952 55.2489L45.8952 55.2489M40.7885 60.9872L45.8952 55.2489M45.8952 55.2489C45.9241 55.1019 45.9126 54.95 45.862 54.8089C45.8114 54.6681 45.7238 54.5435 45.6089 54.4473C43.8342 52.9589 42.3266 50.7144 41.3733 48.1211C41.334 48.0138 41.273 47.9157 41.1944 47.8326L41.1943 47.8325M45.8952 55.2489L41.1943 47.8325M41.1943 47.8325C39.9346 46.502 39.2522 45.135 39.2522 44.0927C39.2522 43.7939 39.31 43.5623 39.42 43.3726C39.5301 43.1828 39.7036 43.0157 39.9659 42.8639L39.9662 42.8637M41.1943 47.8325L39.9662 42.8637M39.9662 42.8637C40.0885 42.7927 40.1915 42.6928 40.2653 42.5724C40.3391 42.452 40.3812 42.3152 40.3874 42.1742C40.6526 36.2361 44.9958 31.6061 50.2737 31.5712L50.3958 31.579L50.3958 31.5793M39.9662 42.8637L50.3958 31.5793M50.3958 31.5793L50.4083 31.5794M50.3958 31.5793L50.4083 31.5794M50.4083 31.5794C55.7149 31.6509 60.0364 36.3813 60.1913 42.4081L60.1913 42.4087M50.4083 31.5794L60.1913 42.4087M60.1913 42.4087C60.1947 42.529 60.2243 42.6469 60.2778 42.7546C60.3311 42.8621 60.407 42.9569 60.5 43.033L60.6588 42.8399M60.1913 42.4087L60.5006 43.0335M60.6588 42.8399C61.0413 43.1546 61.2198 43.5536 61.2198 44.0951C61.2198 45.0463 60.6979 46.216 59.7519 47.3868C59.7063 47.4429 59.6716 47.5064 59.6492 47.5745C58.6714 50.586 56.9163 53.2448 54.8361 54.8716C54.7497 54.9391 54.6839 55.0281 54.6455 55.1291C54.6072 55.2302 54.5979 55.3394 54.6186 55.4452C54.9583 57.1683 56.0938 59.5302 59.5771 61.0015L60.4412 42.4017C60.4436 42.4855 60.4642 42.5679 60.5017 42.6434C60.5392 42.719 60.5927 42.7859 60.6588 42.8399ZM60.6588 42.8399L60.5006 43.0335M60.5006 43.0335C60.8192 43.2958 60.9698 43.6208 60.9698 44.0951C60.9698 44.9641 60.4872 46.0789 59.5574 47.2297C59.493 47.3091 59.4436 47.3994 59.4117 47.4965L59.4114 47.4973C58.446 50.4708 56.716 53.084 54.6822 54.6746C54.5604 54.7698 54.4666 54.896 54.4118 55.0405C54.357 55.185 54.3436 55.3415 54.3732 55.4932L54.3733 55.4936C54.7271 57.2879 55.9109 59.7243 59.4798 61.2318L59.4801 61.2319C59.9197 61.417 60.5879 61.5573 61.3871 61.7247C62.9048 62.0438 64.8965 62.4645 66.6632 63.3575C68.424 64.2476 69.9373 65.5947 70.5341 67.7595L70.5342 67.7598C70.564 67.8676 70.6154 67.9682 70.6848 68.056C70.7543 68.1437 70.8405 68.2169 70.9383 68.2716C71.0361 68.3263 71.1436 68.3616 71.2549 68.3757C71.3661 68.3898 71.4791 68.3825 71.5876 68.3541C71.696 68.3258 71.7981 68.2768 71.8878 68.2098C71.9775 68.1427 72.0532 68.0588 72.1103 67.9626C72.1673 67.8663 72.2045 67.7597 72.2194 67.6489C72.2343 67.5381 72.2266 67.4256 72.1968 67.3179L60.5006 43.0335Z" fill="#2F91DE" stroke="#2F91DE" stroke-width="0.5"/>
</svg>
