<svg width="62" height="57" viewBox="0 0 62 57" fill="none" xmlns="http://www.w3.org/2000/svg">
<path d="M50.376 8.97567H42.4502V5.48303C42.4282 4.33917 40.7131 4.33045 40.6888 5.48303V8.97567H31.882V5.48303C31.882 5.0006 31.4879 4.60986 31.0013 4.60986C30.5147 4.60986 30.1206 5.0006 30.1206 5.48303V8.97567H21.3138V5.48303C21.3006 4.34353 19.57 4.33045 19.5525 5.48303V8.97567H11.6266C10.6556 8.97567 9.86523 9.75931 9.86523 10.722V51.7609C9.86523 52.7236 10.6556 53.5072 11.6266 53.5072H50.3766C51.3476 53.5072 52.138 52.7236 52.138 51.7609V10.722C52.138 9.75931 51.347 8.97567 50.376 8.97567ZM19.5519 10.722V14.2146C19.5761 15.3629 21.2912 15.3629 21.3133 14.2146V10.722H30.1201V14.2146C30.1399 15.3629 31.8616 15.3629 31.8814 14.2146V10.722H40.6882V14.2146C40.6882 14.6971 41.0824 15.0878 41.5689 15.0878C42.0555 15.0878 42.4496 14.6971 42.4496 14.2146V10.722H50.3755V18.5802H11.6255V10.722H19.5519ZM18.156 40.4095H23.0746V45.2861L18.156 40.4095ZM23.0746 38.6632H16.9096V20.3271H45.0914V46.5219H24.8354V40.4095C24.8354 39.4468 24.0456 38.6632 23.0746 38.6632ZM11.626 51.7609V20.3271H15.1488V39.5366C15.1488 39.768 15.2434 39.9928 15.4064 40.1544L23.3322 48.0126C23.4137 48.0933 23.5084 48.1566 23.6162 48.2003C23.7219 48.244 23.8386 48.268 23.9553 48.268H45.0917C46.0626 48.268 46.853 47.4843 46.853 46.5216V20.3268H50.3757V51.7606L11.626 51.7609Z" fill="#424242"/>
<path d="M20.4322 24.6931H23.0743V27.3126C23.0919 28.4586 24.8158 28.4608 24.8356 27.3126V23.8199C24.8356 23.3375 24.4415 22.9468 23.9549 22.9468H20.4322C19.2763 22.9664 19.2741 24.6734 20.4322 24.6931Z" fill="#424242"/>
<path d="M24.8349 31.6788C24.8349 31.1964 24.4408 30.8057 23.9542 30.8057H20.4315C19.9449 30.8057 19.5508 31.1964 19.5508 31.6788C19.5508 32.1612 19.9449 32.552 20.4315 32.552H23.0735V35.1715C23.0911 36.3175 24.815 36.3197 24.8349 35.1715V31.6788Z" fill="#424242"/>
<path d="M29.2388 24.6931H31.8809V27.3126C31.8985 28.4586 33.6224 28.4608 33.6423 27.3126V23.8199C33.6423 23.3375 33.2482 22.9468 32.7616 22.9468H29.2388C28.0829 22.9664 28.0807 24.6734 29.2388 24.6931Z" fill="#424242"/>
<path d="M29.2388 32.5515H31.8809V35.171C31.8985 36.317 33.6224 36.3192 33.6423 35.171V31.6783C33.6423 31.1959 33.2482 30.8052 32.7616 30.8052H29.2388C28.0829 30.8248 28.0807 32.5318 29.2388 32.5515Z" fill="#424242"/>
<path d="M38.0455 24.6931H40.6875V27.3126C40.7051 28.4586 42.4291 28.4608 42.4489 27.3126V23.8199C42.4489 23.3375 42.0548 22.9468 41.5682 22.9468H38.0455C36.8896 22.9664 36.8874 24.6734 38.0455 24.6931Z" fill="#424242"/>
<path d="M38.0455 32.5515H40.6875V35.171C40.7051 36.317 42.4291 36.3192 42.4489 35.171V31.6783C42.4489 31.1959 42.0548 30.8052 41.5682 30.8052H38.0455C36.8896 30.8248 36.8874 32.5318 38.0455 32.5515Z" fill="#424242"/>
<path d="M29.2388 40.4094H31.8809V43.0289C31.8985 44.1749 33.6224 44.1771 33.6423 43.0289V39.5362C33.6423 39.0538 33.2482 38.6631 32.7616 38.6631H29.2388C28.0829 38.6827 28.0807 40.3897 29.2388 40.4094Z" fill="#424242"/>
<path d="M38.0455 40.4094H40.6875V43.0289C40.7051 44.1749 42.4291 44.1771 42.4489 43.0289V39.5362C42.4489 39.0538 42.0548 38.6631 41.5682 38.6631H38.0455C36.8896 38.6827 36.8874 40.3897 38.0455 40.4094Z" fill="#424242"/>
</svg>
