<svg width="47" height="47" viewBox="0 0 47 47" fill="none" xmlns="http://www.w3.org/2000/svg">
<g clip-path="url(#clip0_14259_6863)">
<path d="M15.6674 10.7904V17.625C15.6674 17.8847 15.5642 18.1337 15.3806 18.3174C15.1969 18.501 14.9479 18.6042 14.6882 18.6042C14.4285 18.6042 14.1794 18.501 13.9958 18.3174C13.8122 18.1337 13.709 17.8847 13.709 17.625V10.7904C13.7064 10.1458 13.8312 9.5071 14.0761 8.91085C14.3209 8.3146 14.6812 7.77257 15.136 7.31587C15.5909 6.85918 16.1315 6.4968 16.7268 6.24954C17.322 6.00228 17.9603 5.87499 18.6049 5.875H32.3132C33.6116 5.875 34.8569 6.39081 35.7751 7.30896C36.6932 8.2271 37.209 9.47238 37.209 10.7708V36.2292C37.209 37.5276 36.6932 38.7729 35.7751 39.691C34.8569 40.6092 33.6116 41.125 32.3132 41.125H18.6049C17.3098 41.125 16.0675 40.6119 15.1499 39.698C14.2323 38.7841 13.7142 37.5438 13.709 36.2488L15.6674 10.7904ZM15.6674 10.7904C15.6648 10.403 15.7388 10.0189 15.8853 9.66027C16.0318 9.30161 16.2477 8.97547 16.5208 8.70062C16.7938 8.42577 17.1185 8.20764 17.4762 8.0588C17.8339 7.90995 18.2174 7.83332 18.6049 7.83333H32.3132C32.7006 7.83332 33.0842 7.90995 33.4419 8.0588C33.7995 8.20764 34.1242 8.42577 34.3973 8.70062C34.6703 8.97547 34.8863 9.30161 35.0327 9.66027C35.1792 10.0189 35.2533 10.403 35.2507 10.7904H15.6674ZM14.0298 8.89185C13.7824 9.49416 13.6564 10.1394 13.659 10.7905V17.625C13.659 17.898 13.7675 18.1597 13.9605 18.3527C14.1535 18.5457 14.4152 18.6542 14.6882 18.6542C14.9611 18.6542 15.2229 18.5457 15.4159 18.3527C15.6089 18.1597 15.7174 17.898 15.7174 17.625L15.7174 10.7904L15.7174 10.7901C15.7148 10.4093 15.7876 10.0317 15.9316 9.67917C16.0756 9.32662 16.2879 9.00603 16.5562 8.73586C16.8246 8.46569 17.1438 8.25127 17.4954 8.10496C17.847 7.95865 18.224 7.88332 18.6049 7.88333H32.3132C32.694 7.88332 33.0711 7.95865 33.4227 8.10496C33.7742 8.25127 34.0934 8.46569 34.3618 8.73586C34.6302 9.00603 34.8425 9.32662 34.9864 9.67917C35.1304 10.0317 35.2032 10.4093 35.2007 10.7901V10.7904L35.2007 36.2484C35.2007 36.2485 35.2007 36.2486 35.2007 36.2487C35.1955 37.0111 34.8891 37.7405 34.3482 38.2778C33.8072 38.8151 33.0757 39.1167 32.3132 39.1167H18.6049C17.8424 39.1167 17.1108 38.8151 16.5699 38.2778C16.0289 37.7404 15.7225 37.011 15.7174 36.2486V29.375C15.7174 29.102 15.6089 28.8403 15.4159 28.6473C15.2229 28.4543 14.9611 28.3458 14.6882 28.3458C14.4152 28.3458 14.1535 28.4543 13.9605 28.6473C13.7675 28.8403 13.659 29.102 13.659 29.375L13.659 36.2488L13.659 36.249C13.6643 37.5572 14.1876 38.8102 15.1146 39.7334C16.0416 40.6566 17.2966 41.175 18.6049 41.175H32.3132C33.6249 41.175 34.8829 40.6539 35.8104 39.7264C36.7379 38.7989 37.259 37.5409 37.259 36.2292V10.7708C37.259 9.45912 36.7379 8.20112 35.8104 7.2736C34.8829 6.34608 33.6249 5.825 32.3132 5.825H18.6049C17.9537 5.82499 17.3089 5.95357 16.7076 6.20336C16.1062 6.45315 15.5601 6.81923 15.1006 7.28059C14.6411 7.74195 14.2772 8.28951 14.0298 8.89185Z" fill="#303030" stroke="#303030" stroke-width="0.1"/>
<path d="M27.3845 23.1104C27.4867 23.3602 27.4867 23.64 27.3845 23.8898C27.34 24.0193 27.261 24.1343 27.1561 24.2224L21.2837 30.0947C21.2835 30.0949 21.2833 30.0951 21.2832 30.0953C21.1907 30.1937 21.0791 30.2721 20.9552 30.3257C20.831 30.3795 20.6971 30.4072 20.5618 30.4072C20.4266 30.4072 20.2927 30.3795 20.1685 30.3257C20.0449 30.2722 19.9334 30.194 19.8411 30.0959C19.7429 30.0035 19.6647 29.8921 19.6112 29.7684C19.5574 29.6442 19.5297 29.5104 19.5297 29.3751C19.5297 29.2398 19.5574 29.1059 19.6112 28.9818C19.6648 28.8579 19.7432 28.7463 19.8416 28.6538L23.947 24.5293H10.7702C10.4972 24.5293 10.2355 24.4208 10.0425 24.2278C9.84945 24.0348 9.74102 23.773 9.74102 23.5001C9.74102 23.2271 9.84945 22.9654 10.0425 22.7724C10.2355 22.5794 10.4972 22.4709 10.7702 22.4709H23.947L19.8411 18.3459C19.7464 18.2512 19.6713 18.1388 19.6201 18.0152C19.5689 17.8915 19.5425 17.7589 19.5425 17.6251C19.5425 17.4912 19.5689 17.3587 19.6201 17.235C19.6713 17.1113 19.7464 16.999 19.8411 16.9043C19.9357 16.8097 20.0481 16.7346 20.1718 16.6834C20.2954 16.6321 20.428 16.6058 20.5618 16.6058C20.6957 16.6058 20.8283 16.6321 20.9519 16.6834C21.0756 16.7346 21.188 16.8097 21.2826 16.9043L27.1561 22.7778C27.261 22.8659 27.34 22.9808 27.3845 23.1104ZM27.3845 23.1104C27.3847 23.1109 27.3848 23.1114 27.385 23.1118L27.3377 23.128L27.3839 23.109C27.3841 23.1095 27.3843 23.1099 27.3845 23.1104Z" fill="#303030" stroke="#303030" stroke-width="0.1"/>
</g>
<defs>
<clipPath id="clip0_14259_6863">
<rect width="47" height="47" fill="white"/>
</clipPath>
</defs>
</svg>
