<svg width="51" height="55" viewBox="0 0 51 55" fill="none" xmlns="http://www.w3.org/2000/svg">
<path d="M18.1134 1.30957H5.10039C2.99116 1.30957 1.27539 3.0718 1.27539 5.23814V18.6035C1.27539 20.7698 2.99116 22.532 5.10039 22.532H18.1134C20.2226 22.532 21.9384 20.7698 21.9384 18.6035V5.23814C21.9384 3.0718 20.2226 1.30957 18.1134 1.30957ZM19.3884 18.6035C19.3884 19.3255 18.8164 19.913 18.1134 19.913H5.10039C4.3974 19.913 3.82539 19.3255 3.82539 18.6035V5.23814C3.82539 4.51611 4.3974 3.92862 5.10039 3.92862H18.1134C18.8164 3.92862 19.3884 4.51611 19.3884 5.23814V18.6035Z" fill="#303030"/>
<path d="M45.9005 1.30957H32.8875C30.7783 1.30957 29.0625 3.0718 29.0625 5.23814L29.0627 18.6035C29.0627 20.7696 30.7785 22.5318 32.8877 22.5318H45.9005C48.0097 22.5318 49.7255 20.7696 49.7255 18.6032V5.23814C49.7255 3.0718 48.0097 1.30957 45.9005 1.30957ZM47.1755 18.6032C47.1755 19.3252 46.6035 19.9127 45.9005 19.9127H32.8877C32.1848 19.9127 31.6127 19.3255 31.6127 18.6035L31.6125 5.23814C31.6125 4.51611 32.1845 3.92862 32.8875 3.92862H45.9005C46.6035 3.92862 47.1755 4.51611 47.1755 5.23814V18.6032Z" fill="#303030"/>
<path d="M18.1134 29.8484L5.10064 29.8481C2.99141 29.8481 1.27564 31.6104 1.27564 33.7767L1.27539 47.142C1.27539 49.3084 2.99116 51.0706 5.10039 51.0706H18.1131C20.2223 51.0706 21.9381 49.3084 21.9381 47.1423L21.9384 33.777C21.9384 31.6106 20.2226 29.8484 18.1134 29.8484ZM19.3881 47.1423C19.3881 47.8643 18.8161 48.4516 18.1131 48.4516H5.10039C4.3974 48.4516 3.82539 47.8641 3.82539 47.142L3.82564 33.7767C3.82564 33.0547 4.39765 32.4672 5.10064 32.4672L18.1134 32.4674C18.8164 32.4674 19.3884 33.0549 19.3884 33.777L19.3881 47.1423Z" fill="#303030"/>
<path d="M45.9007 29.8489L32.8877 29.8486C30.7785 29.8486 29.0627 31.6109 29.0627 33.7772L29.0625 47.1423C29.0625 49.3086 30.7783 51.0708 32.8875 51.0708L45.9002 51.0711C48.0094 51.0711 49.7255 49.3089 49.7255 47.1428L49.7257 33.7775C49.7257 31.6111 48.0099 29.8489 45.9007 29.8489ZM47.1755 47.1428C47.1755 47.8648 46.6035 48.4521 45.9002 48.4521L32.8875 48.4518C32.1845 48.4518 31.6125 47.8643 31.6125 47.1423L31.6127 33.7772C31.6127 33.0552 32.1848 32.4677 32.8877 32.4677L45.9007 32.4679C46.6037 32.4679 47.1757 33.0554 47.1757 33.7775L47.1755 47.1428Z" fill="#303030"/>
</svg>
