<svg width="48" height="43" viewBox="0 0 48 43" fill="none" xmlns="http://www.w3.org/2000/svg">
<path d="M42.5662 32.9252V32.9251H40.9089V12.1547C40.9089 11.9101 40.7102 11.7142 40.4683 11.7142C40.2237 11.7142 40.0277 11.9129 40.0277 12.1547V32.9268H38.208V15.3428C38.208 15.0981 38.0092 14.9022 37.7674 14.9022C37.5227 14.9022 37.3268 15.1009 37.3268 15.3428V32.9251H9.97564L9.97399 13.9525H26.2715C26.5161 13.9525 26.7121 13.7538 26.7121 13.5119C26.7121 13.2673 26.5133 13.0713 26.2715 13.0713H9.53157C9.28692 13.0713 9.09099 13.2701 9.09099 13.5119V32.9252H7.27123L7.2729 12.1548V12.1548C7.2729 11.658 7.6779 11.2517 8.17605 11.2517H28.4733C28.718 11.2517 28.9139 11.0529 28.9139 10.8111L28.9139 10.8095C28.9114 10.567 28.716 10.3705 28.4717 10.3705H8.17437C7.18942 10.3705 6.39003 11.1718 6.39003 12.1549V32.9268L4.73283 32.9252H4.73269C4.48806 32.9252 4.29214 33.124 4.29211 33.3658C4.29211 33.3658 4.29211 33.3658 4.29211 33.3658L4.29043 37.3382V37.3383C4.29043 38.817 5.49304 40.0196 6.97171 40.0196H40.3268C41.8055 40.0196 43.0081 38.817 43.0081 37.3383V33.3675C43.0081 33.1236 42.8101 32.9255 42.5662 32.9252ZM17.1206 33.8063L30.1786 33.8079L29.3786 35.4465L29.3785 35.4468C29.2289 35.7544 28.9102 35.9536 28.5677 35.9536L18.7315 35.9519C18.3894 35.9519 18.0718 35.7531 17.9205 35.4446L17.1206 33.8063ZM42.1256 37.3382C42.1256 37.3382 42.1256 37.3382 42.1256 37.3382C42.1255 38.3304 41.3193 39.1366 40.3272 39.1366H6.97205C5.9799 39.1366 5.17364 38.3303 5.17364 37.3382V33.808H16.1384L17.1285 35.8334C17.4258 36.4427 18.0543 36.8347 18.7314 36.8347H28.5659C29.243 36.8347 29.8715 36.4426 30.1688 35.8334L31.1589 33.808H42.1238L42.1256 37.3382Z" fill="#2F91DE" stroke="#2F91DE" stroke-width="0.3"/>
<path d="M13.7733 23.1727L13.7736 23.1724L13.78 23.166C14.0702 22.8774 14.466 22.4838 15.2063 22.4838C15.9498 22.4838 16.3472 22.879 16.6375 23.1676L16.6437 23.1737C16.7802 23.3086 16.8868 23.4134 17.0096 23.488C17.1266 23.559 17.2617 23.6041 17.4537 23.6041C17.6477 23.6041 17.7841 23.5589 17.9018 23.4877C18.0252 23.413 18.1322 23.3078 18.2684 23.1724L18.2727 23.1681C18.5635 22.879 18.961 22.4838 19.7062 22.4838C20.4497 22.4838 20.8474 22.8809 21.1371 23.1707C21.2771 23.3095 21.3891 23.4176 21.515 23.4912L21.8259 19.9827C21.8259 19.9825 21.826 19.9824 21.826 19.9822C21.8389 19.8267 21.9046 19.6769 22.0085 19.5622C22.0087 19.562 22.0088 19.5619 22.009 19.5617L36.6784 3.12203L36.6785 3.12198C37.2107 2.52618 37.9432 2.17412 38.7402 2.12817L38.7406 2.12815C39.5393 2.084 40.3055 2.3511 40.9014 2.88329C42.1322 3.98154 42.24 5.87523 41.1418 7.10611L41.1418 7.10614L39.5923 8.84185L40.5049 9.65571L40.5052 9.65601C40.6485 9.78459 40.7357 9.96267 40.7463 10.1575C40.7463 10.1575 40.7463 10.1576 40.7463 10.1576L40.5965 10.1657C40.6049 10.3186 40.5529 10.4681 40.4504 10.5823L13.7733 23.1727ZM13.7733 23.1727C13.6378 23.3082 13.5316 23.4132 13.4091 23.4879C13.2923 23.559 13.1569 23.6041 12.9639 23.6041C12.8937 23.6041 12.8357 23.5968 12.789 23.5852M13.7733 23.1727L40.5621 10.6825L39.4167 11.9655L35.8457 15.9665L35.8456 15.9666C35.7596 16.0628 35.6397 16.114 35.5171 16.114C35.414 16.114 35.3086 16.0786 35.2237 16.0017C35.0415 15.8391 35.0258 15.5596 35.1887 15.3785C35.1888 15.3784 35.1889 15.3783 35.189 15.3782L38.7596 11.3777L38.8715 11.4776L38.7596 11.3777L39.8049 10.2067L39.0065 9.49868L30.8303 18.6588L30.8302 18.6588L26.4697 23.5482C26.3659 23.6647 26.2264 23.745 26.0742 23.7767L26.0737 23.7768L22.3617 24.5373C22.3614 24.5374 22.3611 24.5375 22.3608 24.5375C22.3098 24.5485 22.2589 24.5525 22.2122 24.5525C22.1084 24.5525 22.0135 24.5231 21.9321 24.4869C21.2013 24.4799 20.8083 24.0892 20.5206 23.8032L20.5145 23.797C20.3779 23.6622 20.2714 23.5574 20.1485 23.4828C20.0316 23.4117 19.8965 23.3666 19.7045 23.3666C19.5105 23.3666 19.3741 23.4119 19.2564 23.4831C19.133 23.5578 19.026 23.663 18.8897 23.7984C18.8897 23.7984 18.8897 23.7984 18.8897 23.7984L18.8854 23.8027C18.5946 24.0918 18.1971 24.487 17.452 24.487C16.7081 24.487 16.3105 24.0896 16.0207 23.7997L16.1267 23.6937L16.0207 23.7997C15.8843 23.6634 15.7778 23.558 15.6547 23.4832C15.5374 23.4119 15.4011 23.3666 15.2063 23.3666C15.0133 23.3666 14.8778 23.4118 14.7611 23.4829C14.6385 23.5575 14.5324 23.6626 14.3969 23.7981L14.3966 23.7984L14.3901 23.8048C14.0999 24.0934 13.7041 24.487 12.9639 24.487C12.82 24.487 12.6859 24.4706 12.5643 24.4383C12.3284 24.3764 12.1904 24.1341 12.2509 23.8997L12.251 23.8994C12.3126 23.6634 12.5546 23.5251 12.789 23.5852M12.789 23.5852C12.7893 23.5853 12.7895 23.5853 12.7897 23.5854L12.7523 23.7306L12.7886 23.5851C12.7888 23.5851 12.7889 23.5852 12.789 23.5852ZM37.3391 3.70919C37.339 3.70924 37.339 3.70929 37.339 3.70934L36.8858 4.22032L40.0318 7.02913L40.4861 6.51978L37.3391 3.70919ZM37.3391 3.70919C37.7138 3.2891 38.2286 3.04018 38.7912 3.00852M37.3391 3.70919L38.7912 3.00852M38.7912 3.00852C38.8348 3.00684 38.8752 3.00532 38.9151 3.00532C39.4324 3.00532 39.926 3.19321 40.3169 3.54172C41.1839 4.31625 41.2593 5.6508 40.4862 6.51965L38.7912 3.00852ZM21.9933 24.4817C21.9939 24.4815 21.9932 24.4817 21.9924 24.4819L21.9933 24.4817ZM30.173 18.0708L30.173 18.0708L26.1241 22.608L22.9768 19.7994L34.0176 7.43073L37.1633 10.2393L30.173 18.0708ZM25.2764 23.0361L22.3861 23.6352L22.6461 20.6889L25.2764 23.0361ZM36.2967 4.87616L39.4424 7.68468L37.7508 9.5806L34.6051 6.77208L36.2967 4.87616Z" fill="#2F91DE" stroke="#2F91DE" stroke-width="0.3"/>
<path d="M34.5643 28.9685C34.8092 28.9706 35.0069 28.7717 35.0069 28.5296C35.0069 28.2849 34.8082 28.089 34.5663 28.089L12.734 28.0873H12.7339C12.4893 28.0873 12.2934 28.286 12.2934 28.5279C12.2934 28.7725 12.4921 28.9685 12.7339 28.9685H34.5643ZM34.5643 28.9685C34.5641 28.9685 34.5638 28.9685 34.5635 28.9685L34.565 28.8185M34.5643 28.9685H34.565V28.8185M34.565 28.8185H12.7339C12.5744 28.8185 12.4434 28.6891 12.4434 28.5279C12.4434 28.3683 12.5727 28.2373 12.7339 28.2373L34.5663 28.239C34.7259 28.239 34.8569 28.3683 34.8569 28.5296C34.8569 28.6891 34.7263 28.8202 34.565 28.8185Z" fill="#2F91DE" stroke="#2F91DE" stroke-width="0.3"/>
<path d="M12.7339 26.4958H21.4346C21.6792 26.4958 21.8752 26.2971 21.8752 26.0552C21.8752 25.8106 21.6764 25.6146 21.4346 25.6146H12.7339C12.4893 25.6146 12.2934 25.8134 12.2934 26.0552C12.2934 26.2999 12.4921 26.4958 12.7339 26.4958Z" fill="#2F91DE" stroke="#2F91DE" stroke-width="0.3"/>
<path d="M35.005 26.0568C35.0076 25.8107 34.8077 25.6146 34.5662 25.6146H25.8638C25.6192 25.6146 25.4232 25.8134 25.4232 26.0552C25.4232 26.2999 25.622 26.4958 25.8638 26.4958H34.5644C34.8086 26.4958 35.0042 26.2979 35.005 26.0568ZM35.005 26.0568L34.855 26.0552H35.005C35.005 26.0558 35.005 26.0563 35.005 26.0568Z" fill="#2F91DE" stroke="#2F91DE" stroke-width="0.3"/>
<path d="M12.734 30.5609H12.7339C12.4893 30.5609 12.2934 30.7597 12.2934 31.0015C12.2934 31.2462 12.4921 31.4421 12.7339 31.4421C12.7339 31.4421 12.7339 31.4421 12.7339 31.4421L34.1398 31.4438C34.3844 31.4438 34.5804 31.245 34.5804 31.0032C34.5804 30.7585 34.3816 30.5626 34.1398 30.5626L12.734 30.5609Z" fill="#2F91DE" stroke="#2F91DE" stroke-width="0.3"/>
<path d="M18.0885 21.643L18.0881 21.6423C17.6048 20.6964 16.6453 20.1082 15.5829 20.1065C15.5828 20.1065 15.5828 20.1065 15.5827 20.1065M18.0885 21.643L15.5795 19.9565H15.5829L15.5827 20.1065M18.0885 21.643C18.1998 21.8581 18.4644 21.9459 18.682 21.8332L18.682 21.8332C18.8968 21.722 18.9847 21.4579 18.8726 21.2404C18.4732 20.4591 17.8243 19.8701 17.0523 19.5369C17.5013 19.1332 17.7872 18.5491 17.7872 17.8972C17.7872 16.6789 16.7962 15.6879 15.5778 15.6879C14.3595 15.6879 13.3685 16.6789 13.3685 17.8972C13.3685 18.5491 13.6532 19.1334 14.1034 19.5373C13.3344 19.8705 12.6859 20.4592 12.2867 21.2401C12.1749 21.4565 12.261 21.7234 12.4776 21.8335C12.5422 21.8669 12.6113 21.8819 12.6787 21.8819C12.8372 21.8819 12.9936 21.7964 13.0712 21.6418C13.5546 20.6962 14.5141 20.1082 15.5762 20.1065M18.0885 21.643L15.5762 20.1065M15.5827 20.1065L15.5795 20.1065L15.5764 20.1065M15.5827 20.1065H15.5764M15.5764 20.1065L15.5762 20.1065M15.5764 20.1065L15.5762 20.1065M14.2531 17.8972C14.2531 17.1654 14.8495 16.5691 15.5813 16.5691C16.3128 16.5691 16.9077 17.1652 16.9077 17.8972C16.9077 18.6274 16.3146 19.222 15.5845 19.2237H15.5812H15.578C14.8461 19.222 14.2531 18.6273 14.2531 17.8972Z" fill="#2F91DE" stroke="#2F91DE" stroke-width="0.3"/>
</svg>
